<?xml version="1.0" encoding="UTF-8"?>
<svg id="Layer_2" data-name="Layer 2" xmlns="http://www.w3.org/2000/svg" viewBox="0 0 200 40">
  <defs>
    <style>
      .cls-1 {
        fill: #fff;
      }
    </style>
  </defs>
  <g id="Layer_1-2" data-name="Layer 1">
    <g>
      <path d="M141.75,11.24c-.34,0-.62.19-.62.43s.28.43.62.43.62-.19.62-.43-.28-.43-.62-.43ZM141.57,29.5c-.34,0-.62.19-.62.43s.28.43.62.43.62-.19.62-.43-.28-.43-.62-.43ZM140.75,11.34c.34,0,.62-.19.62-.43s-.28-.43-.62-.43-.62.19-.62.43.28.43.62.43ZM140.59,30.26c-.34,0-.62.19-.62.43s.28.43.62.43.62-.19.62-.43-.28-.43-.62-.43ZM139.13,11.67c0,.24.28.43.62.43s.62-.19.62-.43-.28-.43-.62-.43-.62.19-.62.43ZM140.2,29.93c0-.24-.28-.43-.62-.43s-.62.19-.62.43.28.43.62.43.62-.19.62-.43ZM138.75,11.34c.34,0,.62-.19.62-.43s-.28-.43-.62-.43-.62.19-.62.43.28.43.62.43ZM138.59,30.26c-.34,0-.62.19-.62.43s.28.43.62.43.62-.19.62-.43-.28-.43-.62-.43ZM137.13,11.67c0,.24.28.43.62.43s.62-.19.62-.43-.28-.43-.62-.43-.62.19-.62.43ZM138.2,29.93c0-.24-.28-.43-.62-.43s-.62.19-.62.43.28.43.62.43.62-.19.62-.43ZM136.77,11.34c.34,0,.62-.19.62-.43s-.28-.43-.62-.43-.62.19-.62.43.28.43.62.43ZM136.59,30.26c-.34,0-.62.19-.62.43s.28.43.62.43.62-.19.62-.43-.28-.43-.62-.43ZM131.4,7.84l.05.25.93-.09-.05-.25-.93.09ZM127.62,8.2l.05.25,1.89-.18-.05-.25-1.89.18ZM123.84,8.56l.05.25,1.89-.18-.05-.25-1.89.18ZM120.06,8.92l.05.25,1.89-.18-.05-.25-1.89.18ZM119,30.66h.35v-.66h-.35v.66ZM119,28.68h.35v-1.32h-.35v1.32ZM118.61,24.75l-.24.18c.4.26.63.63.63,1.02v.08h.35v-.08c0-.45-.27-.89-.75-1.2ZM116.28,9.28l.05.25,1.89-.18-.05-.25-1.89.18ZM114.92,24.13l1.81.34.09-.24-1.81-.34-.09.24ZM112.5,9.64l.05.25,1.89-.18-.05-.25-1.89.18ZM111.29,23.44l1.82.34.09-.24-1.81-.34-.09.24ZM108.72,10.01l.05.25,1.89-.18-.05-.25-1.89.18ZM107.66,22.76l1.81.34.09-.24-1.81-.34-.09.24ZM104.94,10.37l.05.25,1.89-.18-.05-.25-1.89.18ZM104.03,22.08l1.81.34.09-.24-1.81-.34-.09.24ZM101.16,10.73l.05.25,1.89-.18-.05-.25-1.89.18ZM100.4,21.4l1.81.34.09-.24-1.81-.34-.09.24ZM97.38,11.09l.05.25,1.89-.18-.05-.25-1.89.18ZM96.77,20.71l1.81.34.09-.24-1.81-.34-.09.24ZM93.6,11.45l.05.25,1.89-.18-.05-.25-1.89.18ZM93.1,20.12l.04.25c.6-.05,1.22-.04,1.82.03l.06-.25c-.63-.07-1.28-.08-1.92-.03ZM89.82,11.81l.05.25,1.89-.18-.05-.25-1.89.18ZM89.37,20.47l.05.25,1.86-.17-.05-.25-1.86.17ZM86.04,12.17l.05.25,1.89-.18-.05-.25-1.89.18ZM85.65,20.81l.05.25,1.86-.17-.05-.25-1.86.17ZM82.26,12.53l.05.25,1.89-.18-.05-.25-1.89.18ZM81.92,21.16l.05.25,1.86-.17-.05-.25-1.86.17ZM78.48,12.89l.05.25,1.89-.18-.05-.25-1.89.18ZM78.2,21.5l.05.25,1.86-.17-.05-.25-1.86.17ZM74.7,13.25l.05.25,1.89-.18-.05-.25-1.89.18ZM74.47,21.85l.05.25,1.86-.17-.05-.25-1.86.17ZM70.92,13.61l.05.25,1.89-.18-.05-.25-1.89.18ZM70.75,22.19l.05.25,1.86-.17-.05-.25-1.86.17ZM67.14,13.97l.05.25,1.89-.18-.05-.25-1.89.18ZM67.03,22.54l.05.25,1.86-.17-.05-.25-1.86.17ZM63.37,14.33l.05.25,1.89-.18-.05-.25-1.89.18ZM63.3,22.88l.05.25,1.86-.17-.05-.25-1.86.17ZM59.59,14.69l.05.25,1.89-.18-.05-.25-1.89.18ZM59.58,23.23l.05.25,1.86-.17-.05-.25-1.86.17ZM55.85,23.57l.05.25,1.86-.17-.05-.25-1.86.17ZM57.74,15.12l-.05-.25-1.89.18.05.25,1.89-.18ZM52.13,23.92l.05.25,1.86-.17-.05-.25-1.86.17ZM53.92,15.23l-1.89.18.05.25,1.89-.18-.05-.25ZM48.4,24.26l.05.25,1.86-.17-.05-.25-1.86.17ZM50.14,15.59l-1.89.18.05.25,1.89-.18-.05-.25ZM44.68,24.61l.05.25,1.86-.17-.05-.25-1.86.17ZM46.36,15.95l-1.89.18.05.25,1.89-.18-.05-.25ZM40.95,24.95l.05.25,1.86-.17-.05-.25-1.86.17ZM42.58,16.31l-1.89.18.05.25,1.89-.18-.05-.25ZM37.23,25.3l.05.25,1.86-.17-.05-.25-1.86.17ZM38.8,16.67l-1.89.18.05.25,1.89-.18-.05-.25ZM33.51,25.64l.05.25,1.86-.17-.05-.25-1.86.17ZM35.02,17.04l-1.89.18.05.25,1.89-.18-.05-.25ZM29.78,25.99l.05.25,1.86-.17-.05-.25-1.86.17ZM31.24,17.4l-1.89.18.05.25,1.89-.18-.05-.25ZM26.06,26.33l.05.25,1.86-.17-.05-.25-1.86.17ZM27.46,17.76l-1.89.18.05.25,1.89-.18-.05-.25ZM25.4,9.68c.34,0,.62-.19.62-.43s-.28-.43-.62-.43-.62.19-.62.43.28.43.62.43ZM25,33.31c-.34,0-.62.19-.62.43s.28.43.62.43.62-.19.62-.43-.28-.43-.62-.43ZM25.34,34.34h-1.04s-.07.02-.07.05v.45s.03.05.07.05h1.04s.07-.02.07-.05v-.45s-.03-.05-.07-.05ZM23.81,10.01c0,.24.28.43.62.43s.62-.19.62-.43-.28-.43-.62-.43-.62.19-.62.43ZM24.61,32.97c0-.24-.28-.43-.62-.43s-.62.19-.62.43.28.43.62.43.62-.19.62-.43ZM24.19,26.5l-1.86.17.05.25,1.86-.17-.05-.25ZM23.01,8.5h1.04s.07-.02.07-.05v-.45s-.03-.05-.07-.05h-1.04s-.07.02-.07.05v.45s.03.05.07.05ZM23.93,34.34h-1.04s-.07.02-.07.05v.45s.03.05.07.05h1.04s.07-.02.07-.05v-.45s-.03-.05-.07-.05ZM23.43,9.68c.34,0,.62-.19.62-.43s-.28-.43-.62-.43-.62.19-.62.43.28.43.62.43ZM21.84,18.54l1.89-.18-.05-.25-1.89.18.05.25ZM23,34.17c.34,0,.62-.19.62-.43s-.28-.43-.62-.43-.62.19-.62.43.28.43.62.43ZM23.04,10.01c0-.24-.28-.43-.62-.43s-.62.19-.62.43.28.43.62.43.62-.19.62-.43ZM21.64,8.5h1.04s.07-.02.07-.05v-.45s-.03-.05-.07-.05h-1.04s-.07.02-.07.05v.45s.03.05.07.05ZM22.52,34.34h-1.04s-.07.02-.07.05v.45s.03.05.07.05h1.04s.07-.02.07-.05v-.45s-.03-.05-.07-.05ZM21.38,32.97c0,.24.28.43.62.43s.62-.19.62-.43-.28-.43-.62-.43-.62.19-.62.43ZM21.42,9.68c.34,0,.62-.19.62-.43s-.28-.43-.62-.43-.62.19-.62.43.28.43.62.43ZM21.61,33.74c0-.24-.28-.43-.62-.43s-.62.19-.62.43.28.43.62.43.62-.19.62-.43ZM20.42,10.44c.34,0,.62-.19.62-.43s-.28-.43-.62-.43-.62.19-.62.43.28.43.62.43ZM20.47,26.85l-1.86.17.05.25,1.86-.17-.05-.25ZM20.63,32.97c0-.24-.28-.43-.62-.43s-.62.19-.62.43.28.43.62.43.62-.19.62-.43ZM19.9,18.48l-1.89.18.05.25,1.89-.18-.05-.25ZM14.88,27.37l.05.25,1.86-.17-.05-.25-1.86.17ZM16.12,18.84l-1.89.18.05.25,1.89-.18-.05-.25ZM11.16,27.71l.05.25,1.86-.17-.05-.25-1.86.17ZM12.34,19.2l-1.89.18.05.25,1.89-.18-.05-.25ZM7.43,28.05l.05.25,1.86-.17-.05-.25-1.86.17ZM8.56,19.56l-1.89.18.05.25,1.89-.18-.05-.25ZM4.64,28.31l.05.25.93-.09-.05-.25-.93.09ZM4.78,19.92l-.93.09.05.25.93-.09-.05-.25Z"/>
      <path d="M199.92,14.89l-.88-.91s-.12-.07-.19-.07h-.92c-.09,0-.15.05-.15.11v.47l-25.35-1.15v-.44s-.05-.08-.11-.08h-.38l.31-5.06s-.02-.04-.05-.04h-.09s-.06.01-.06.04l-.31,5.06h-.4l.16-.41s0-.03-.03-.03l-.12-.02s-.04,0-.05.02l-.17.45h-.31c-.06,0-.11.03-.11.08v.36l-3.61-.16v-.47s-.05-.08-.11-.08h-.36l.31-5.05s-.02-.04-.05-.04h-.09s-.06.01-.06.04l-.31,5.05h-.4l.15-.38s0-.03-.03-.03l-.12-.02s-.04,0-.05.02l-.16.42h-.33c-.06,0-.11.03-.11.08v.39l-3.04-.14v-.44s-.05-.08-.11-.08h-.35l.31-5.01s-.02-.04-.05-.04h-.09s-.06.01-.06.04l-.31,5.01h-.42l.14-.37s0-.03-.03-.03l-.12-.02s-.04,0-.05.02l-.15.4h-.32c-.06,0-.11.03-.11.08v.36l-3.45-.16v-.37s-.05-.07-.11-.07h-.36l.31-5.03s-.02-.04-.05-.04h-.09s-.06.01-.06.04l-.31,5.04h-.41l.16-.42s0-.03-.03-.03l-.12-.02s-.04,0-.05.02l-.18.46h-.33c-.06,0-.11.03-.11.07v.29l-.44-.02c-.09,0-.15-.05-.15-.12v-.27c0-.15-.18-.28-.39-.28h-.92c-.21-.02-.4-.11-.48-.24-.27-.43-.83-.93-1.96-1.27-.26-.08-.55-.12-.83-.13h-.19v-.41c0-.07-.08-.13-.19-.13h-.25l.31-4.99s-.02-.04-.05-.04h-.09s-.05.01-.06.03l-.31,5h-.42l.22-.41s0-.04-.03-.05l-.08-.02s-.06,0-.07.02l-.25.46h-.06c-.1,0-.19.06-.19.13v.35l-2.29-.08s0,0,0-.01v-.35c0-.07-.08-.13-.19-.13h-.13l.31-5.07s-.02-.04-.05-.04h-.09s-.05.01-.06.03l-.31,5.07h-.49l.26-.49s0-.04-.03-.05l-.08-.02s-.06,0-.07.02l-.29.54h-.09c-.1,0-.19.06-.19.13v.31l-2.08-.07v-.53c0-.07-.07-.13-.17-.13l-.34-.02.31-5.01s-.02-.04-.05-.04h-.09s-.05.01-.06.03l-.31,5.01h-.15s.02-.52.02-.52c0-.02-.02-.04-.06-.04h-.08s-.06.02-.06.04l-.02.5h-.18s-.08,0-.11,0h-5.31s-.04-.03-.02-.04l.65-.33s.05-.06.03-.09l-4.78-6.71c-.17-.23-.4-.43-.68-.57-.94-.47-2.09-.47-2.13-.47h-.1v.68h-.68v-.56h-8.91v.56h-.68s-.2-.52-.2-.52c0-.01-.02-.02-.04-.02l-15.65,2.02s-.02.01-.02.02v.61l-.96.13-.38-.86s-.08-.08-.16-.08h-.36c-.09,0-.17.05-.17.12v.97l-.52.07c-.18.02-.35-.07-.37-.2,0-.04,0-.08,0-.12.03-.18-.02-.44-.55-.48s-.75.15-.84.29c-.05.08-.16.13-.28.13h-.36c-.1,0-.18-.06-.18-.13v-.18c0-.26-.23-.48-.55-.58l.04-2.58s-.03-.04-.06-.04h-.11s-.06.02-.06.04l-.04,2.54s-.07,0-.11,0h-3.26l.04-2.53s-.03-.04-.06-.04h-.11s-.06.02-.06.04l-.04,2.54c-.18,0-.35.06-.48.14l-.35.22c-.07.04-.16.07-.25.07h-1.37c-.11,0-.21-.03-.28-.09l-.28-.21c-.11-.08-.28-.09-.41-.03h0c-.09.05-.2.07-.31.07h-.56c-.06,0-.1.03-.1.07v.16s-.05.07-.1.07h-.42s.05-3.01.05-3.01c0-.02-.03-.04-.06-.04h-.11s-.06.02-.06.04l-.05,3.01h-2.98c-.13,0-.24-.08-.23-.18v-.4c.02-.21-.11-.42-.35-.55-.16-.09-.39-.17-.72-.21-.09-.01-.16.03-.16.1,0,.06-.05.1-.13.11l-1.36.07-.26-.74s-.04-.04-.07-.03l-.11.02s-.05.03-.05.05l.25.71h-.15c-.14.02-.24.09-.24.19,0,.24,0,.66,0,.79,0,.02-.03.04-.06.04-.26,0-1.36,0-3.06.01l.05-3.08s-.03-.04-.06-.04h-.11s-.06.02-.06.04l-.05,3.09c-3.6.01-9.7.04-16.4.06l.12-3.37s-.03-.04-.06-.04h-.11s-.06.02-.06.04l-.12,3.37c-1.53,0-3.09.01-4.65.02l.12-3.39s-.03-.04-.06-.04h-.11s-.06.02-.06.04l-.12,3.39c-1.31,0-2.63.01-3.93.01l.12-3.4s-.03-.04-.06-.04h-.11s-.06.02-.06.04l-.12,3.41c-3.84.01-7.59.03-10.93.04-.03,0-.06-.02-.06-.04v-.04c0-.05-.03-.1-.08-.14l-.29-.23c-.13-.11-.37-.11-.5,0l-.29.23s-.08.09-.08.14v.05s-.03.04-.06.04c-5.54.02-9.69.04-10.72.04-.16,0-.31.05-.41.13-.55.47-2.37,2-2.8,2.36-.06.05-.14.07-.23.07h-.31c-.08,0-.16.03-.22.07l-1.24.98c-.11.09-.17.2-.17.32v.29s-.05.08-.12.08h-2.5c-.1,0-.19.06-.19.13v.39c0,.07-.08.13-.19.13h-.55c-.1,0-.19-.06-.19-.13v-.4c0-.07-.08-.13-.19-.13h-6.95c-.09,0-.17.03-.23.07l-.71.53c-.06.05-.15.07-.23.07h-3.15c-.08,0-.16.01-.23.04l-1.09.42c-.08.03-.12.08-.12.14v1.04c0,.05-.06.09-.13.09h-2.31c-.64,0-1.16.36-1.16.82v.52c0,.07-.07.12-.16.12l-2.49.16c-.06,0-.1.02-.14.05-.02.02-.05.03-.09.03H.06s-.06.02-.06.05l2.55,19.11s0,.01.02.01h.98l.11.84c.06.48.63.85,1.31.85h1.79c.11,0,.2.06.2.14v.67c0,.09.06.17.17.22l.92.45c.09.04.2.07.31.07h3.29c.09,0,.18.03.23.08l.48.46c.07.07.19.11.32.11l13.73-.04c.22,0,.42.06.57.17l.32.22c.07.05.16.07.25.07h6.74s.03,0,.03.02c0,.06.07.11.15.11h4.78c.11,0,.21-.06.21-.14,0-.08.09-.16.21-.16h.08s.09.03.09.06c0,.19.22.34.49.33.25,0,.46-.17.46-.35v-.29s.05-.09.12-.09h1.06s0,.3,0,.3c0,.05.05.1.11.11.33.09,2.4.61,5.24.61,1.54,0,3.31-.15,5.15-.61.07-.02.12-.06.12-.12v-.3h2.59v.17c0,.08.06.16.15.21l1.56.81c.1.05.22.08.34.08h1.45c.11,0,.21.03.29.09l1.05.85c.07.06.18.09.29.09h2.49c.12,0,.22-.07.22-.16v-1.33c0-.06.07-.11.15-.11h.91l-.13.88s.02.04.05.05h.06s.06-.01.07-.03l.13-.9h2.6c.06,0,.12.04.12.08v.86c0,.06.07.12.16.12h.88c.16,0,.31-.06.39-.15l.21-.23s0,0,0,0l4.43,1.18-.91.18s-.07.03-.06.06c0,.03.03.05.07.06l1.31.21.05,1.03s.04.05.08.05h.11s.08-.02.08-.05l.05-1,1.67-.25s.07-.03.07-.06c0-.03-.03-.06-.08-.06l-1.64-.17.03-.71h1.73c.08,0,.15-.05.15-.1v-1.12c0-.06.07-.1.15-.1h2.17c.07,0,.13-.04.13-.09h0c0-.06.06-.1.13-.1h.17c.07,0,.13.04.13.09v.65s.06.09.13.09h.89c.03.13.19.23.39.23s.35-.1.39-.23h.63c.08,0,.16.03.21.08l.66.69c.08.09.27.09.35,0l.62-.67c.05-.05.13-.08.21-.08h1.82c.06,0,.11-.03.11-.08v-.53s.05-.08.11-.08h.19c.06,0,.11.03.11.08v1.36s.05.09.12.09h1.43c.5,0,.91-.29.91-.64v-.16c0-.07.08-.12.17-.12h.86c.07,0,.13.02.17.06.09.1.34.27.97.13.06-.02.13.02.13.07v.42c0,.1.07.2.19.26l.64.33c.1.05.22.08.34.08h1.63c.14,0,.28-.04.38-.11l.32-.22c.1-.07.24-.11.38-.11h2.21v3.07h.32v-3.07h1.89c.08,0,.14-.04.16-.09l.24-.92c.01-.05.08-.09.15-.09h1.02c.07,0,.13.01.19.04l.45.19s.11.01.14-.02l.06-.06s.02-.08-.04-.1l-.32-.13c-.07-.03-.08-.1-.03-.13l.26-.18,1.83.02.67.95s.06.03.09.02l.05-.02s.05-.04.03-.06l-.63-.89,2.15.02c.12,0,.24-.04.31-.11l.59-.6c.82.4,2.45.92,5.37.92s4.66-.5,5.65-.89v.22c0,.08.09.14.2.14h.3c.11,0,.2-.06.2-.14v-.47h2.35c.11,0,.22.03.31.09l.34.23c.08.06.2.09.32.09l3.89-.06c.13,0,.26-.05.34-.12l.51-.47c.08-.07.2-.12.33-.12,1.25-.04,7.83-.25,9.21-.5,1.22-.23,1.45-1.26,1.49-1.66,0-.09.11-.16.24-.17.53-.02,1.92-.09,3.63-.18v.41c0,.07.08.13.18.13h.37l.09.46s.03.04.06.03h.09s.05-.03.05-.05l-.09-.44h.33l.42,5.09s.02.03.05.03h.11s.04-.02.04-.04l-.42-5.08h.41c.12,0,.2-.08.17-.16l-.19-.46c.76-.04,1.53-.08,2.3-.13v.29c0,.06.07.11.16.11h.43l.11.56s.03.04.07.04h.08s.05-.03.05-.05l-.11-.54h.34l.43,5.18s.02.03.05.03h.11s.04-.02.04-.04l-.43-5.17h.39c.11,0,.19-.08.15-.15l-.18-.36c.85-.06,1.66-.11,2.35-.17v.47c0,.06.07.11.15.11h.65l.42,5.14s.02.03.05.03h.11s.04-.02.04-.04l-.42-5.14h.24l-.06.39s.02.04.05.05h.08s.06,0,.06-.03l.06-.4h.18c.08,0,.15-.05.15-.11v-.53s-.04-.08-.09-.1c.14-.02.26-.03.36-.05,1.68-.28,2.39-1.13,2.62-1.46.06-.08.17-.14.31-.13.52,0,1.79-.06,1.7-.84l.23-.02v.33c0,.07.08.12.17.12h.15l.22.51s.04.03.06.02l.09-.02s.04-.03.03-.05l-.2-.47h.35l.52,5.18s.03.04.06.03h.09s.05-.02.05-.04l-.51-5.17h.41c.09,0,.17-.05.17-.12v-.43s0-.02,0-.03l3.44-.26v.33c0,.07.08.12.17.12h.25l.22.5s.04.03.06.02l.09-.02s.04-.03.03-.04l-.2-.46h.33l.5,5.04s.03.04.06.04h.08s.06-.03.05-.05l-.5-5.03h.47c.09,0,.17-.05.17-.12v-.47l3.3-.25v.38c0,.07.08.12.17.12h.21l.18.4s.04.03.06.02l.07-.02s.04-.03.03-.04l-.16-.37h.35l.49,4.96s.03.04.06.04h.07s.06-.03.06-.05l-.49-4.95h.27c.09,0,.17-.05.17-.12v-.44s0-.03-.02-.05l3.95-.3v.38c0,.07.08.12.17.12h.24l.19.44s.04.03.06.02l.09-.02s.04-.03.03-.04l-.17-.4h.25l.49,4.97s.03.04.06.04h.08s.06-.03.06-.05l-.49-4.96h.33c.09,0,.17-.05.17-.12v-.47s0-.02,0-.03l5.64-.42,1.39.47s.07,0,.08-.02l.03-.05s0-.05-.03-.06l-1.1-.37,19.08-1.42v.4c0,.08.09.14.2.14h1.01c.08,0,.16-.03.21-.07l.81-.69s.07-.09.07-.14v-9.92c0-.06-.03-.12-.08-.18ZM.21,12.13s.02-.05.06-.05h.86l.11.85H.31l-.11-.81ZM.33,13.07h.92l.1.77H.43l-.1-.77ZM.45,13.97h.91l.1.77h-.91l-.1-.77ZM.57,14.86h.91l.1.77h-.9l-.1-.77ZM.69,15.76h.9l.1.77h-.9l-.1-.77ZM.81,16.66h.9l.1.77h-.89l-.1-.77ZM.93,17.56h.89l.1.77h-.89l-.1-.77ZM1.05,18.46h.88l.1.77h-.88l-.1-.77ZM1.17,19.36h.88l.1.77h-.87l-.1-.77ZM1.29,20.25h.87l.1.77h-.87l-.1-.77ZM1.41,21.15h.87l.1.77h-.86l-.1-.77ZM1.53,22.05h.86l.1.77h-.86l-.1-.77ZM1.65,22.95h.86l.1.77h-.85l-.1-.77ZM1.77,23.85h.85l.1.77h-.85l-.1-.77ZM1.89,24.74h.85l.1.77h-.84l-.1-.77ZM2.01,25.64h.84l.1.77h-.84l-.1-.77ZM2.13,26.54h.84l.1.77h-.83l-.1-.77ZM2.25,27.44h.83l.1.77h-.83l-.1-.77ZM2.37,28.34h.82l.1.77h-.82l-.1-.77ZM2.49,29.23h.82l.1.77h-.81l-.1-.77ZM2.74,30.99s-.02,0-.02-.01l-.11-.84h.81l.11.85h-.79ZM3.9,20.25l-.05-.25.93-.09.05.25-.93.09ZM4.68,28.56l-.05-.25.93-.09.05.25-.93.09ZM6.72,19.98l-.05-.25,1.89-.18.05.25-1.89.18ZM7.48,28.3l-.05-.25,1.86-.17.05.25-1.86.17ZM10.45,19.38l1.89-.18.05.25-1.89.18-.05-.25ZM11.2,27.96l-.05-.25,1.86-.17.05.25-1.86.17ZM25.4,8.81c.34,0,.62.19.62.43s-.28.43-.62.43-.62-.19-.62-.43.28-.43.62-.43ZM24.43,9.58c.34,0,.62.19.62.43s-.28.43-.62.43-.62-.19-.62-.43.28-.43.62-.43ZM23.68,18.12l.05.25-1.89.18-.05-.25,1.89-.18ZM21.81,10.01c0-.24.28-.43.62-.43s.62.19.62.43-.28.43-.62.43-.62-.19-.62-.43ZM21.99,32.54c.34,0,.62.19.62.43s-.28.43-.62.43-.62-.19-.62-.43.28-.43.62-.43ZM23,33.31c.34,0,.62.19.62.43s-.28.43-.62.43-.62-.19-.62-.43.28-.43.62-.43ZM22.38,26.92l-.05-.25,1.86-.17.05.25-1.86.17ZM22.94,8s.03-.05.07-.05h1.04s.07.02.07.05v.45s-.03.05-.07.05h-1.04s-.07-.02-.07-.05v-.45ZM23.43,8.81c.34,0,.62.19.62.43s-.28.43-.62.43-.62-.19-.62-.43.28-.43.62-.43ZM21.57,8s.03-.05.07-.05h1.04s.07.02.07.05v.45s-.03.05-.07.05h-1.04s-.07-.02-.07-.05v-.45ZM21.42,8.81c.34,0,.62.19.62.43s-.28.43-.62.43-.62-.19-.62-.43.28-.43.62-.43ZM20.42,9.58c.34,0,.62.19.62.43s-.28.43-.62.43-.62-.19-.62-.43.28-.43.62-.43ZM14.23,19.02l1.89-.18.05.25-1.89.18-.05-.25ZM14.93,27.61l-.05-.25,1.86-.17.05.25-1.86.17ZM18.01,18.66l1.89-.18.05.25-1.89.18-.05-.25ZM18.61,27.02l1.86-.17.05.25-1.86.17-.05-.25ZM19.4,32.97c0-.24.28-.43.62-.43s.62.19.62.43-.28.43-.62.43-.62-.19-.62-.43ZM20.38,33.74c0-.24.28-.43.62-.43s.62.19.62.43-.28.43-.62.43-.62-.19-.62-.43ZM22.59,34.84s-.03.05-.07.05h-1.04s-.07-.02-.07-.05v-.45s.03-.05.07-.05h1.04s.07.02.07.05v.45ZM24,34.84s-.03.05-.07.05h-1.04s-.07-.02-.07-.05v-.45s.03-.05.07-.05h1.04s.07.02.07.05v.45ZM23.38,32.97c0-.24.28-.43.62-.43s.62.19.62.43-.28.43-.62.43-.62-.19-.62-.43ZM25.41,34.84s-.03.05-.07.05h-1.04s-.07-.02-.07-.05v-.45s.03-.05.07-.05h1.04s.07.02.07.05v.45ZM25,34.17c-.34,0-.62-.19-.62-.43s.28-.43.62-.43.62.19.62.43-.28.43-.62.43ZM25.57,17.94l1.89-.18.05.25-1.89.18-.05-.25ZM26.1,26.58l-.05-.25,1.86-.17.05.25-1.86.17ZM29.35,17.58l1.89-.18.05.25-1.89.18-.05-.25ZM29.83,26.23l-.05-.25,1.86-.17.05.25-1.86.17ZM33.13,17.21l1.89-.18.05.25-1.89.18-.05-.25ZM33.55,25.89l-.05-.25,1.86-.17.05.25-1.86.17ZM36.91,16.85l1.89-.18.05.25-1.89.18-.05-.25ZM37.28,25.54l-.05-.25,1.86-.17.05.25-1.86.17ZM50.31,24.33l-1.86.17-.05-.25,1.86-.17.05.25ZM50.14,15.59l.05.25-1.89.18-.05-.25,1.89-.18ZM46.59,24.68l-1.86.17-.05-.25,1.86-.17.05.25ZM46.36,15.95l.05.25-1.89.18-.05-.25,1.89-.18ZM40.74,16.74l-.05-.25,1.89-.18.05.25-1.89.18ZM41,25.2l-.05-.25,1.86-.17.05.25-1.86.17ZM43.01,35.45c-.47-.09-.78-.17-.89-.2v-.31h.68c.11.02.24.04.37.07l-.16.44ZM44.15,35.64c-.36-.05-.69-.1-.97-.15l.16-.44c.24.04.51.08.81.12v.48ZM45.45,35.78c-.4-.03-.78-.07-1.12-.12v-.48c.35.04.72.08,1.12.11v.49ZM46.75,35.84c-.39,0-.77-.03-1.13-.05v-.49c.36.02.73.04,1.13.05v.5ZM48.06,35.84c-.39.01-.76.02-1.13.01v-.5c.36,0,.74,0,1.13,0v.5ZM49.36,35.76c-.38.04-.76.06-1.13.08v-.5c.37-.01.74-.04,1.13-.07v.49ZM50.66,35.59c-.38.06-.76.11-1.13.14v-.49c.37-.03.74-.08,1.13-.13v.48ZM51.96,35.35c-.38.09-.75.16-1.13.22v-.47c.29-.04.57-.09.87-.15h.26v.4ZM52.03,15.41l1.89-.18.05.25-1.89.18-.05-.25ZM52.14,35.31v-.36h.26v.3c-.09.02-.17.04-.26.06ZM52.17,24.16l-.05-.25,1.86-.17.05.25-1.86.17ZM57.7,14.87l.05.25-1.89.18-.05-.25,1.89-.18ZM55.9,23.82l-.05-.25,1.86-.17.05.25-1.86.17ZM59.62,23.47l-.05-.25,1.86-.17.05.25-1.86.17ZM59.63,14.94l-.05-.25,1.89-.18.05.25-1.89.18ZM63.35,23.13l-.05-.25,1.86-.17.05.25-1.86.17ZM63.41,14.58l-.05-.25,1.89-.18.05.25-1.89.18ZM72.81,13.43l.05.25-1.89.18-.05-.25,1.89-.18ZM72.61,22.02l.05.25-1.86.17-.05-.25,1.86-.17ZM69.04,13.79l.05.25-1.89.18-.05-.25,1.89-.18ZM67.53,36.32c0,.07-.08.12-.18.12-.09,0-.15-.06-.15-.12v-.6s.03-.05.07-.05h.18s.07.02.07.05v.61ZM67.07,22.78l-.05-.25,1.86-.17.05.25-1.86.17ZM68.78,36.24c.06-.02.13-.03.2-.03.1,0,.18-.06.18-.13v-.32c0-.07.08-.12.17-.12s.17-.05.17-.12v-.16h1.73v.51c0,.1.11.17.25.17h.57c.21,0,.38-.12.38-.26v-.42h.63c.08,0,.15.05.15.1v1.23c0,.06.07.1.15.1h.03l.03.64-.09.02-4.54-1.21ZM72.51,37.75l.82-.16h.09s.01.31.01.31l-.92-.15ZM74.95,37.75l-1.14.17v-.28s1.14.12,1.14.12ZM74.52,22.09l-.05-.25,1.86-.17.05.25-1.86.17ZM74.75,13.5l-.05-.25,1.89-.18.05.25-1.89.18ZM78.24,21.75l-.05-.25,1.86-.17.05.25-1.86.17ZM78.53,13.14l-.05-.25,1.89-.18.05.25-1.89.18ZM81.97,21.4l-.05-.25,1.86-.17.05.25-1.86.17ZM82.31,12.77l-.05-.25,1.89-.18.05.25-1.89.18ZM85.69,21.06l-.05-.25,1.86-.17.05.25-1.86.17ZM86.09,12.41l-.05-.25,1.89-.18.05.25-1.89.18ZM89.42,20.71l-.05-.25,1.86-.17.05.25-1.86.17ZM89.87,12.05l-.05-.25,1.89-.18.05.25-1.89.18ZM94.96,20.4c-.6-.07-1.22-.08-1.82-.03l-.04-.25c.64-.05,1.29-.04,1.92.03l-.06.25ZM93.65,11.69l-.05-.25,1.89-.18.05.25-1.89.18ZM98.58,21.05l-1.81-.34.09-.24,1.81.34-.09.24ZM97.43,11.33l-.05-.25,1.89-.18.05.25-1.89.18ZM118.37,1.35s.03,0,.04.02l.15.39-.71.09-.09-.42.61-.08ZM117.57,1.46l.09.42-.82.11-.06-.43.79-.1ZM116.58,1.59l.06.43-.81.11-.05-.43.81-.1ZM116.82,24.23l-.09.24-1.81-.34.09-.24,1.81.34ZM115.57,1.72l.05.43-.81.11-.07-.43.82-.11ZM113.55,1.98l.06.44-.81.11-.06-.44.82-.11ZM114.39,9.46l.05.25-1.89.18-.05-.25,1.89-.18ZM111.78,2.21l.76-.1.06.44-.82.11v-.45ZM110.77,2.34l.81-.1v.45l-.81.11v-.46ZM109.76,2.47l.81-.1v.46l-.81.11v-.46ZM108.75,2.6l.81-.1v.46l-.81.11v-.46ZM110.61,9.82l.05.25-1.89.18-.05-.25,1.89-.18ZM107.74,2.73l.81-.1v.47l-.81.11v-.47ZM107.75,22.52l1.81.34-.09.24-1.81-.34.09-.24ZM106.74,2.86l.81-.1v.47l-.81.11v-.47ZM106.88,10.43l-1.89.18-.05-.25,1.89-.18.05.25ZM105.73,2.99l.81-.1v.47l-.81.11v-.48ZM104.72,3.12l.81-.1v.48l-.81.11v-.48ZM102.21,21.74l-1.81-.34.09-.24,1.81.34-.09.24ZM101.21,10.97l-.05-.25,1.89-.18.05.25-1.89.18ZM103.51,3.76l-.48.06v-.47s0-.02.02-.02l.45-.06v.48ZM103.71,3.25l.81-.1v.48l-.81.11v-.48ZM104.03,22.08l.09-.24,1.81.34-.09.24-1.81-.34ZM106.3,34.8c-.14-.05-.26-.11-.36-.16h0c.05-.06.15-.08.24-.07.03,0,.08.01.12.02v.21ZM107.11,35.07c-.24-.07-.45-.14-.64-.21v-.24c.17.03.39.06.64.1v.35ZM107.93,35.26c-.23-.05-.45-.09-.64-.14v-.37c.2.03.41.05.64.08v.44ZM108.75,35.4c-.23-.03-.44-.06-.64-.1v-.45c.2.02.42.04.64.06v.49ZM109.57,35.48c-.22-.02-.44-.04-.64-.06v-.49c.21.02.42.03.64.05v.51ZM110.39,35.53c-.22,0-.44-.02-.64-.04v-.51c.21.01.42.02.64.03v.51ZM111.21,35.54h0c-.22,0-.43,0-.63-.01v-.51c.21,0,.42.01.64.02v.5ZM111.38,23.2l1.81.34-.09.24-1.82-.34.09-.24ZM112.02,35.53c-.21,0-.42.01-.64.01v-.5c.21,0,.43,0,.64,0v.49ZM112.84,35.48c-.21.02-.42.03-.64.04v-.48c.21,0,.43-.01.64-.02v.47ZM113.66,35.4c-.21.03-.42.05-.64.07v-.46c.21-.01.43-.03.64-.05v.44ZM114.48,35.28c-.2.04-.42.07-.64.1v-.43c.21-.02.43-.04.64-.07v.4ZM113.81,2.39l-.06-.44.81-.1.07.43-.81.11ZM115.3,35.11c-.2.05-.41.09-.64.14v-.39c.21-.03.43-.06.64-.1v.35ZM116.12,34.89c-.19.06-.41.12-.64.18v-.34c.22-.04.43-.08.64-.13v.29ZM116.84,34.63c-.16.07-.34.13-.55.2v-.26c.08-.01.16-.02.24-.02h.31v.08ZM116.33,9.53l-.05-.25,1.89-.18.05.25-1.89.18ZM119.36,30.66h-.35v-.66h.35v.66ZM119.36,28.68h-.35v-1.32h.35v1.32ZM119.36,26.03h-.35v-.08c0-.38-.23-.75-.63-1.02l.24-.18c.48.31.75.74.75,1.2v.08ZM141.37,10.91c0,.24-.28.43-.62.43s-.62-.19-.62-.43.28-.43.62-.43.62.19.62.43ZM140.6,9.39h.63s.03,0,.04,0v.51l-.67-.02v-.49ZM139.79,9.39h.6v.49l-.6-.02v-.47ZM140.37,11.67c0,.24-.28.43-.62.43s-.62-.19-.62-.43.28-.43.62-.43.62.19.62.43ZM138.99,9.39h.6v.46l-.6-.02v-.44ZM138.19,9.39h.6v.43l-.6-.02v-.41ZM138.75,10.47c.34,0,.62.19.62.43s-.28.43-.62.43-.62-.19-.62-.43.28-.43.62-.43ZM138.36,11.67c0,.24-.28.43-.62.43s-.62-.19-.62-.43.28-.43.62-.43.62.19.62.43ZM137.38,9.39h.6v.4l-.6-.02v-.38ZM137.39,10.91c0,.24-.28.43-.62.43s-.62-.19-.62-.43.28-.43.62-.43.62.19.62.43ZM136.58,9.39h.6v.37l-.6-.02v-.35ZM133.06,3.98l-.78.24-.49-.68.82-.2.46.64ZM127.68,1.31h.46v.41h-.46v-.41ZM124.74,1.31h.54v.41h-.54v-.41ZM124,1.31h.54v.41h-.54v-.41ZM121.06,1.31h.54v.41h-.54v-.41ZM120.32,1.31h.54v.41h-.54v-.41ZM119.63,1.73v-.41h.49v.41h-.49ZM120.11,9.17l-.05-.25,1.89-.18.05.25-1.89.18ZM122.33,1.73h-.54v-.41h.54v.41ZM123.06,1.73h-.54v-.41h.54v.41ZM123.8,1.73h-.54v-.41h.54v.41ZM123.89,8.81l-.05-.25,1.89-.18.05.25-1.89.18ZM126.01,1.73h-.54v-.41h.54v.41ZM126.74,1.73h-.54v-.41h.54v.41ZM127.48,1.73h-.54v-.41h.54v.41ZM127.66,8.45l-.05-.25,1.89-.18.05.25-1.89.18ZM129.62,1.76c-.13-.02-.26-.03-.4-.03v-.54c.09,0,.23.01.4.03v.54ZM129.82,1.8v-.55c.33.05.74.14,1.12.3l-.45.51c-.2-.11-.43-.19-.67-.25ZM130.64,2.14l.47-.53h0c.26.13.48.31.64.53l.14.2-.83.19c-.11-.15-.25-.28-.42-.39ZM131.98,2.47l.53.74-.82.2-.54-.75.83-.19ZM131.44,8.09l-.05-.25.93-.09.05.25-.93.09ZM132.36,4.35l.78-.24.48.67-.78.24-.48-.67ZM132.94,5.14l.78-.24.47.67-.77.24-.48-.66ZM133.51,5.93l.77-.24.49.69-.77.24-.49-.69ZM134.09,6.74l.77-.24.49.69-.76.24-.49-.69ZM134.68,7.56l.76-.24.48.67-.76.24-.48-.67ZM135.25,8.35l.76-.24.45.63s0,.07-.03.09l-.61.31-.57-.79ZM135.85,9.71v-.32h.53v.34l-.53-.02ZM136.59,31.13c-.34,0-.62-.19-.62-.43s.28-.43.62-.43.62.19.62.43-.28.43-.62.43ZM136.97,29.93c0-.24.28-.43.62-.43s.62.19.62.43-.28.43-.62.43-.62-.19-.62-.43ZM138.59,31.13c-.34,0-.62-.19-.62-.43s.28-.43.62-.43.62.19.62.43-.28.43-.62.43ZM138.97,29.93c0-.24.28-.43.62-.43s.62.19.62.43-.28.43-.62.43-.62-.19-.62-.43ZM140.59,31.13c-.34,0-.62-.19-.62-.43s.28-.43.62-.43.62.19.62.43-.28.43-.62.43ZM141.57,30.36c-.34,0-.62-.19-.62-.43s.28-.43.62-.43.62.19.62.43-.28.43-.62.43ZM141.75,12.11c-.34,0-.62-.19-.62-.43s.28-.43.62-.43.62.19.62.43-.28.43-.62.43ZM199.04,14.23l.72.74-.51.19c-.06-.23-.25-.42-.52-.54l.32-.4ZM197.98,14.09s.02-.03.05-.03h.82s.02,0,.03.01l.03.03-.38.47c-.11-.03-.23-.05-.35-.06h-.2v-.42ZM197.96,25.75s-.06-.02-.06-.04v-.37l.29-.02c.12,0,.23-.03.34-.06l.31.5h-.88ZM199.02,25.69l-.31-.5c.18-.08.33-.2.43-.33l.61.21-.72.62ZM199.8,24.93l-.59-.2c.03-.06.05-.13.05-.19h.54v.4ZM199.8,24.39h-.54v-.74h.54v.74ZM199.8,23.51h-.54v-.74h.54v.74ZM199.8,22.62h-.54v-.74h.54v.74ZM199.8,21.74h-.54v-.74h.54v.74ZM199.8,20.85h-.54v-.74h.54v.74ZM199.8,19.97h-.54v-.74h.54v.74ZM199.8,19.08h-.54v-.74h.54v.74ZM199.8,18.2h-.54v-.74h.54v.74ZM199.8,17.31h-.54v-.74h.54v.74ZM199.8,16.43h-.54v-.74h.54v.74ZM199.8,15.54h-.54v-.23l.54-.2v.43Z"/>
      <g>
        <g>
          <polygon class="cls-1" points="5.62 28.47 4.68 28.56 4.64 28.31 5.57 28.23 5.62 28.47"/>
          <path class="cls-1" d="M93.1,20.12l.04.25c.6-.05,1.22-.04,1.82.03l.06-.25c-.63-.07-1.28-.08-1.92-.03ZM91.23,20.29l-1.86.17.05.25,1.86-.17-.05-.25ZM96.86,20.47l-.09.24,1.81.34.09-.24-1.81-.34ZM87.51,20.64l-1.86.17.05.25,1.86-.17-.05-.25ZM83.79,20.98l-1.86.17.05.25,1.86-.17-.05-.25ZM100.49,21.16l-.09.24,1.81.34.09-.24-1.81-.34ZM80.06,21.33l-1.86.17.05.25,1.86-.17-.05-.25ZM76.34,21.67l-1.86.17.05.25,1.86-.17-.05-.25ZM104.12,21.84l-.09.24,1.81.34.09-.24-1.81-.34ZM72.61,22.02l-1.86.17.05.25,1.86-.17-.05-.25ZM68.89,22.36l-1.86.17.05.25,1.86-.17-.05-.25ZM107.75,22.52l-.09.24,1.81.34.09-.24-1.81-.34ZM65.16,22.71l-1.86.17.05.25,1.86-.17-.05-.25ZM61.44,23.05l-1.86.17.05.25,1.86-.17-.05-.25ZM111.38,23.2l-.09.24,1.82.34.09-.24-1.81-.34ZM57.71,23.4l-1.86.17.05.25,1.86-.17-.05-.25ZM53.99,23.74l-1.86.17.05.25,1.86-.17-.05-.25ZM115.01,23.89l-.09.24,1.81.34.09-.24-1.81-.34ZM50.27,24.09l-1.86.17.05.25,1.86-.17-.05-.25ZM46.54,24.43l-1.86.17.05.25,1.86-.17-.05-.25ZM42.82,24.78l-1.86.17.05.25,1.86-.17-.05-.25ZM39.09,25.12l-1.86.17.05.25,1.86-.17-.05-.25ZM35.37,25.47l-1.86.17.05.25,1.86-.17-.05-.25ZM118.61,24.75l-.24.18c.4.26.63.63.63,1.02v.08h.35v-.08c0-.45-.27-.89-.75-1.2ZM31.64,25.81l-1.86.17.05.25,1.86-.17-.05-.25ZM27.92,26.16l-1.86.17.05.25,1.86-.17-.05-.25ZM24.19,26.5l-1.86.17.05.25,1.86-.17-.05-.25ZM20.47,26.85l-1.86.17.05.25,1.86-.17-.05-.25ZM16.75,27.19l-1.86.17.05.25,1.86-.17-.05-.25ZM13.02,27.54l-1.86.17.05.25,1.86-.17-.05-.25ZM9.3,27.88l-1.86.17.05.25,1.86-.17-.05-.25ZM119,27.35v1.32h.35v-1.32h-.35Z"/>
          <rect class="cls-1" x="119" y="30" width=".35" height=".66"/>
        </g>
        <g>
          <polygon class="cls-1" points="4.83 20.16 3.9 20.25 3.85 20.01 4.78 19.92 4.83 20.16"/>
          <path class="cls-1" d="M129.51,8.02l-1.89.18.05.25,1.89-.18-.05-.25ZM125.73,8.38l-1.89.18.05.25,1.89-.18-.05-.25ZM121.95,8.74l-1.89.18.05.25,1.89-.18-.05-.25ZM118.17,9.1l-1.89.18.05.25,1.89-.18-.05-.25ZM114.39,9.46l-1.89.18.05.25,1.89-.18-.05-.25ZM110.61,9.82l-1.89.18.05.25,1.89-.18-.05-.25ZM106.83,10.19l-1.89.18.05.25,1.89-.18-.05-.25ZM103.05,10.55l-1.89.18.05.25,1.89-.18-.05-.25ZM99.27,10.91l-1.89.18.05.25,1.89-.18-.05-.25ZM95.49,11.27l-1.89.18.05.25,1.89-.18-.05-.25ZM91.71,11.63l-1.89.18.05.25,1.89-.18-.05-.25ZM87.93,11.99l-1.89.18.05.25,1.89-.18-.05-.25ZM84.15,12.35l-1.89.18.05.25,1.89-.18-.05-.25ZM80.37,12.71l-1.89.18.05.25,1.89-.18-.05-.25ZM76.59,13.07l-1.89.18.05.25,1.89-.18-.05-.25ZM72.81,13.43l-1.89.18.05.25,1.89-.18-.05-.25ZM69.04,13.79l-1.89.18.05.25,1.89-.18-.05-.25ZM65.25,14.15l-1.89.18.05.25,1.89-.18-.05-.25ZM61.48,14.51l-1.89.18.05.25,1.89-.18-.05-.25ZM57.7,14.87l-1.89.18.05.25,1.89-.18-.05-.25ZM53.92,15.23l-1.89.18.05.25,1.89-.18-.05-.25ZM50.14,15.59l-1.89.18.05.25,1.89-.18-.05-.25ZM46.36,15.95l-1.89.18.05.25,1.89-.18-.05-.25ZM42.58,16.31l-1.89.18.05.25,1.89-.18-.05-.25ZM38.8,16.67l-1.89.18.05.25,1.89-.18-.05-.25ZM35.02,17.04l-1.89.18.05.25,1.89-.18-.05-.25ZM31.24,17.4l-1.89.18.05.25,1.89-.18-.05-.25ZM27.46,17.76l-1.89.18.05.25,1.89-.18-.05-.25ZM23.68,18.12l-1.89.18.05.25,1.89-.18-.05-.25ZM19.9,18.48l-1.89.18.05.25,1.89-.18-.05-.25ZM16.12,18.84l-1.89.18.05.25,1.89-.18-.05-.25ZM12.34,19.2l-1.89.18.05.25,1.89-.18-.05-.25ZM8.56,19.56l-1.89.18.05.25,1.89-.18-.05-.25Z"/>
          <polygon class="cls-1" points="132.38 8 131.44 8.09 131.4 7.84 132.33 7.75 132.38 8"/>
        </g>
        <g>
          <g>
            <g>
              <g>
                <g>
                  <path class="cls-1" d="M25.04,10.01c0,.24-.28.43-.62.43s-.62-.19-.62-.43.28-.43.62-.43.62.19.62.43Z"/>
                  <path class="cls-1" d="M23.04,10.01c0,.24-.28.43-.62.43s-.62-.19-.62-.43.28-.43.62-.43.62.19.62.43Z"/>
                </g>
                <path class="cls-1" d="M21.04,10.01c0,.24-.28.43-.62.43s-.62-.19-.62-.43.28-.43.62-.43.62.19.62.43Z"/>
                <path class="cls-1" d="M22.04,9.24c0,.24-.28.43-.62.43s-.62-.19-.62-.43.28-.43.62-.43.62.19.62.43Z"/>
                <path class="cls-1" d="M24.04,9.24c0,.24-.28.43-.62.43s-.62-.19-.62-.43.28-.43.62-.43.62.19.62.43Z"/>
                <path class="cls-1" d="M26.02,9.24c0,.24-.28.43-.62.43s-.62-.19-.62-.43.28-.43.62-.43.62.19.62.43Z"/>
              </g>
              <g>
                <path class="cls-1" d="M22.75,8v.45s-.03.05-.07.05h-1.04s-.07-.02-.07-.05v-.45s.03-.05.07-.05h1.04s.07.02.07.05Z"/>
                <path class="cls-1" d="M24.12,8v.45s-.03.05-.07.05h-1.04s-.07-.02-.07-.05v-.45s.03-.05.07-.05h1.04s.07.02.07.05Z"/>
              </g>
            </g>
            <g>
              <g>
                <g>
                  <path class="cls-1" d="M21.61,33.74c0,.24-.28.43-.62.43s-.62-.19-.62-.43.28-.43.62-.43.62.19.62.43Z"/>
                  <path class="cls-1" d="M23.61,33.74c0,.24-.28.43-.62.43s-.62-.19-.62-.43.28-.43.62-.43.62.19.62.43Z"/>
                </g>
                <path class="cls-1" d="M25.61,33.74c0,.24-.28.43-.62.43s-.62-.19-.62-.43.28-.43.62-.43.62.19.62.43Z"/>
                <path class="cls-1" d="M24.61,32.97c0,.24-.28.43-.62.43s-.62-.19-.62-.43.28-.43.62-.43.62.19.62.43Z"/>
                <path class="cls-1" d="M22.61,32.97c0,.24-.28.43-.62.43s-.62-.19-.62-.43.28-.43.62-.43.62.19.62.43Z"/>
                <path class="cls-1" d="M20.63,32.97c0,.24-.28.43-.62.43s-.62-.19-.62-.43.28-.43.62-.43.62.19.62.43Z"/>
              </g>
              <g>
                <g>
                  <path class="cls-1" d="M22.59,34.39v.45s-.03.05-.07.05h-1.04s-.07-.02-.07-.05v-.45s.03-.05.07-.05h1.04s.07.02.07.05Z"/>
                  <path class="cls-1" d="M24,34.39v.45s-.03.05-.07.05h-1.04s-.07-.02-.07-.05v-.45s.03-.05.07-.05h1.04s.07.02.07.05Z"/>
                </g>
                <path class="cls-1" d="M25.41,34.39v.45s-.03.05-.07.05h-1.04s-.07-.02-.07-.05v-.45s.03-.05.07-.05h1.04s.07.02.07.05Z"/>
              </g>
            </g>
          </g>
          <g>
            <g>
              <g>
                <path class="cls-1" d="M141.2,30.7c0,.24-.28.43-.62.43s-.62-.19-.62-.43.28-.43.62-.43.62.19.62.43Z"/>
                <path class="cls-1" d="M139.2,30.7c0,.24-.28.43-.62.43s-.62-.19-.62-.43.28-.43.62-.43.62.19.62.43Z"/>
              </g>
              <path class="cls-1" d="M137.2,30.7c0,.24-.28.43-.62.43s-.62-.19-.62-.43.28-.43.62-.43.62.19.62.43Z"/>
              <path class="cls-1" d="M138.2,29.93c0,.24-.28.43-.62.43s-.62-.19-.62-.43.28-.43.62-.43.62.19.62.43Z"/>
              <path class="cls-1" d="M140.2,29.93c0,.24-.28.43-.62.43s-.62-.19-.62-.43.28-.43.62-.43.62.19.62.43Z"/>
              <path class="cls-1" d="M142.18,29.93c0,.24-.28.43-.62.43s-.62-.19-.62-.43.28-.43.62-.43.62.19.62.43Z"/>
            </g>
            <g>
              <g>
                <path class="cls-1" d="M138.36,11.67c0,.24-.28.43-.62.43s-.62-.19-.62-.43.28-.43.62-.43.62.19.62.43Z"/>
                <path class="cls-1" d="M140.37,11.67c0,.24-.28.43-.62.43s-.62-.19-.62-.43.28-.43.62-.43.62.19.62.43Z"/>
              </g>
              <path class="cls-1" d="M142.37,11.67c0,.24-.28.43-.62.43s-.62-.19-.62-.43.28-.43.62-.43.62.19.62.43Z"/>
              <path class="cls-1" d="M141.37,10.91c0,.24-.28.43-.62.43s-.62-.19-.62-.43.28-.43.62-.43.62.19.62.43Z"/>
              <path class="cls-1" d="M139.37,10.91c0,.24-.28.43-.62.43s-.62-.19-.62-.43.28-.43.62-.43.62.19.62.43Z"/>
              <path class="cls-1" d="M137.39,10.91c0,.24-.28.43-.62.43s-.62-.19-.62-.43.28-.43.62-.43.62.19.62.43Z"/>
            </g>
          </g>
        </g>
      </g>
    </g>
  </g>
</svg>