<?xml version="1.0" encoding="UTF-8"?>
<svg id="Carrier" data-name="Carrier" xmlns="http://www.w3.org/2000/svg" viewBox="0 0 2529.56 718.26">
  <defs>
    <style>
      .cls-1 {
        fill: #fff;
      }
    </style>
  </defs>
  <g id="Layer_1-2" data-name="Layer 1">
    <g>
      <path d="M1792.86,201.85c-4.3,0-7.79,3.48-7.79,7.78s3.49,7.79,7.79,7.79,7.79-3.49,7.79-7.79-3.49-7.78-7.79-7.78ZM1790.49,529.64c-4.3,0-7.79,3.48-7.79,7.78s3.49,7.79,7.79,7.79,7.78-3.49,7.78-7.79-3.48-7.78-7.78-7.78ZM1780.2,203.62c4.3,0,7.79-3.49,7.79-7.79s-3.49-7.78-7.79-7.78-7.79,3.48-7.79,7.78,3.49,7.79,7.79,7.79ZM1778.14,543.44c-4.3,0-7.79,3.48-7.79,7.78s3.49,7.79,7.79,7.79,7.79-3.49,7.79-7.79-3.49-7.78-7.79-7.78ZM1759.75,209.63c0,4.3,3.49,7.79,7.79,7.79s7.78-3.49,7.78-7.79-3.48-7.78-7.78-7.78-7.79,3.48-7.79,7.78ZM1773.27,537.42c0-4.3-3.49-7.78-7.79-7.78s-7.79,3.48-7.79,7.78,3.49,7.79,7.79,7.79,7.79-3.49,7.79-7.79ZM1754.88,203.62c4.3,0,7.78-3.49,7.78-7.79s-3.48-7.78-7.78-7.78-7.79,3.48-7.79,7.78,3.49,7.79,7.79,7.79ZM1752.82,543.44c-4.3,0-7.79,3.48-7.79,7.78s3.49,7.79,7.79,7.79,7.79-3.49,7.79-7.79-3.49-7.78-7.79-7.78ZM1734.43,209.63c0,4.3,3.49,7.79,7.79,7.79s7.78-3.49,7.78-7.79-3.48-7.78-7.78-7.78-7.79,3.48-7.79,7.78ZM1747.95,537.42c0-4.3-3.49-7.78-7.79-7.78s-7.79,3.48-7.79,7.78,3.49,7.79,7.79,7.79,7.79-3.49,7.79-7.79ZM1729.87,203.62c4.3,0,7.79-3.49,7.79-7.79s-3.49-7.78-7.79-7.78-7.78,3.48-7.78,7.78,3.48,7.79,7.78,7.79ZM1727.5,543.44c-4.3,0-7.79,3.48-7.79,7.78s3.49,7.79,7.79,7.79,7.78-3.49,7.78-7.79-3.48-7.78-7.78-7.78ZM1661.88,140.82l.6,4.42,11.8-1.59-.6-4.43-11.8,1.6ZM1614.08,147.29l.6,4.43,23.9-3.24-.6-4.42-23.9,3.23ZM1566.28,153.77l.6,4.42,23.9-3.24-.6-4.42-23.9,3.24ZM1518.48,160.24l.59,4.42,23.9-3.23-.59-4.43-23.9,3.24ZM1505.13,550.63h4.46v-11.9h-4.46v11.9ZM1505.13,514.95h4.46v-23.76h-4.46v23.76ZM1500.14,444.51l-3.02,3.28c5.09,4.68,8.01,11.33,8.01,18.23v1.42h4.46v-1.42c0-8.15-3.44-15.99-9.45-21.51ZM1470.67,166.71l.6,4.43,23.9-3.24-.6-4.42-23.9,3.23ZM1453.43,433.21l22.95,6.13,1.15-4.32-22.95-6.12-1.15,4.31ZM1422.87,173.19l.6,4.42,23.9-3.24-.6-4.42-23.9,3.24ZM1407.52,420.95l22.96,6.13,1.15-4.31-22.95-6.13-1.16,4.31ZM1375.07,179.66l.59,4.42,23.91-3.23-.6-4.43-23.9,3.24ZM1361.62,408.7l22.95,6.13,1.15-4.31-22.95-6.13-1.15,4.31ZM1327.26,186.13l.6,4.43,23.9-3.24-.6-4.42-23.9,3.23ZM1315.72,396.45l22.95,6.13,1.15-4.32-22.95-6.12-1.15,4.31ZM1279.46,192.61l.6,4.42,23.9-3.24-.6-4.42-23.9,3.24ZM1269.81,384.2l22.95,6.12,1.15-4.31-22.95-6.13-1.15,4.32ZM1231.66,199.08l.6,4.42,23.9-3.24-.6-4.42-23.9,3.24ZM1223.91,371.94l22.95,6.13,1.15-4.31-22.95-6.13-1.15,4.31ZM1183.85,205.55l.6,4.43,23.9-3.24-.59-4.42-23.91,3.23ZM1177.5,361.33l.51,4.43c7.64-.88,15.47-.7,23.07.53l.71-4.41c-8.01-1.29-16.25-1.48-24.29-.55ZM1136.05,212.03l.6,4.42,23.9-3.24-.6-4.42-23.9,3.24ZM1130.36,367.51l.58,4.43,23.55-3.1-.58-4.42-23.55,3.09ZM1088.25,218.5l.6,4.42,23.9-3.23-.6-4.43-23.9,3.24ZM1083.25,373.71l.58,4.42,23.56-3.09-.58-4.43-23.56,3.1ZM1040.45,224.97l.59,4.42,23.91-3.23-.6-4.42-23.9,3.23ZM1036.15,379.9l.58,4.43,23.55-3.1-.58-4.43-23.55,3.1ZM992.64,231.45l.6,4.42,23.9-3.24-.6-4.42-23.9,3.24ZM989.04,386.09l.58,4.43,23.56-3.1-.59-4.42-23.55,3.09ZM944.84,237.92l.6,4.42,23.9-3.24-.6-4.42-23.9,3.24ZM941.93,392.29l.59,4.42,23.55-3.09-.58-4.43-23.56,3.1ZM897.04,244.39l.6,4.42,23.9-3.23-.6-4.43-23.9,3.24ZM894.83,398.48l.58,4.43,23.55-3.1-.58-4.43-23.55,3.1ZM849.23,250.86l.6,4.43,23.9-3.24-.59-4.42-23.91,3.23ZM847.72,404.67l.58,4.43,23.56-3.1-.58-4.42-23.56,3.09ZM801.43,257.34l.6,4.42,23.9-3.24-.6-4.42-23.9,3.24ZM800.62,410.87l.58,4.42,23.55-3.09-.58-4.43-23.55,3.1ZM753.63,263.81l.6,4.42,23.9-3.23-.6-4.43-23.9,3.24ZM753.51,417.06l.58,4.43,23.55-3.1-.58-4.43-23.55,3.1ZM706.4,423.25l.59,4.43,23.55-3.1-.58-4.42-23.56,3.09ZM730.33,271.47l-.6-4.42-23.9,3.23.59,4.43,23.91-3.24ZM659.3,429.45l.58,4.42,23.55-3.09-.58-4.43-23.55,3.1ZM681.92,273.52l-23.9,3.24.6,4.42,23.9-3.24-.6-4.42ZM612.19,435.64l.58,4.42,23.56-3.09-.58-4.43-23.56,3.1ZM634.12,279.99l-23.9,3.24.6,4.42,23.9-3.23-.6-4.43ZM565.09,441.83l.58,4.43,23.55-3.1-.58-4.42-23.55,3.09ZM586.32,286.47l-23.9,3.23.6,4.43,23.9-3.24-.6-4.42ZM517.98,448.03l.58,4.42,23.55-3.09-.58-4.43-23.55,3.1ZM538.51,292.94l-23.9,3.24.6,4.42,23.9-3.24-.6-4.42ZM470.87,454.22l.58,4.42,23.56-3.09-.58-4.43-23.56,3.1ZM490.71,299.41l-23.9,3.24.6,4.42,23.9-3.23-.6-4.43ZM423.77,460.41l.58,4.43,23.55-3.1-.58-4.42-23.55,3.09ZM442.91,305.89l-23.9,3.23.6,4.43,23.9-3.24-.6-4.42ZM376.66,466.61l.58,4.42,23.56-3.1-.59-4.42-23.55,3.1ZM395.11,312.36l-23.91,3.24.6,4.42,23.91-3.24-.6-4.42ZM329.56,472.8l.58,4.42,23.55-3.09-.58-4.43-23.55,3.1ZM347.3,318.83l-23.9,3.24.6,4.42,23.9-3.23-.6-4.43ZM321.29,173.74c4.3,0,7.79-3.48,7.79-7.78s-3.49-7.79-7.79-7.79-7.78,3.49-7.78,7.79,3.48,7.78,7.78,7.78ZM316.17,598.05c-4.3,0-7.79,3.48-7.79,7.78s3.49,7.79,7.79,7.79,7.78-3.49,7.78-7.79-3.48-7.78-7.78-7.78ZM320.46,616.59h-13.19c-.49,0-.88.39-.88.88v8.07c0,.48.39.88.88.88h13.19c.48,0,.88-.4.88-.88v-8.07c0-.49-.4-.88-.88-.88ZM301.16,179.76c0,4.3,3.49,7.78,7.79,7.78s7.79-3.48,7.79-7.78-3.49-7.79-7.79-7.79-7.79,3.49-7.79,7.79ZM311.29,592.03c0-4.3-3.48-7.78-7.78-7.78s-7.79,3.48-7.79,7.78,3.49,7.79,7.79,7.79,7.78-3.49,7.78-7.79ZM306,475.89l-23.55,3.1.58,4.43,23.55-3.1-.58-4.43ZM291.03,152.66h13.19c.49,0,.88-.4.88-.88v-8.07c0-.49-.39-.88-.88-.88h-13.19c-.48,0-.88.39-.88.88v8.07c0,.48.4.88.88.88ZM302.63,616.59h-13.19c-.48,0-.88.39-.88.88v8.07c0,.48.4.88.88.88h13.19c.48,0,.88-.4.88-.88v-8.07c0-.49-.4-.88-.88-.88ZM296.29,173.74c4.3,0,7.79-3.48,7.79-7.78s-3.49-7.79-7.79-7.79-7.79,3.49-7.79,7.79,3.49,7.78,7.79,7.78ZM276.2,332.96l23.9-3.23-.6-4.42-23.9,3.23.6,4.42ZM290.85,613.62c4.3,0,7.78-3.49,7.78-7.79s-3.48-7.78-7.78-7.78-7.79,3.48-7.79,7.78,3.48,7.79,7.79,7.79ZM291.42,179.76c0-4.3-3.49-7.79-7.79-7.79s-7.79,3.49-7.79,7.79,3.49,7.78,7.79,7.78,7.79-3.48,7.79-7.78ZM273.71,152.66h13.19c.49,0,.88-.4.88-.88v-8.07c0-.49-.39-.88-.88-.88h-13.19c-.48,0-.87.39-.87.88v8.07c0,.48.39.88.87.88ZM284.8,616.59h-13.19c-.48,0-.88.39-.88.88v8.07c0,.48.4.88.88.88h13.19c.48,0,.88-.4.88-.88v-8.07c0-.49-.4-.88-.88-.88ZM270.4,592.03c0,4.3,3.48,7.79,7.78,7.79s7.79-3.49,7.79-7.79-3.49-7.78-7.79-7.78-7.78,3.48-7.78,7.78ZM270.97,173.74c4.3,0,7.78-3.48,7.78-7.78s-3.48-7.79-7.78-7.79-7.79,3.49-7.79,7.79,3.49,7.78,7.79,7.78ZM273.31,605.83c0-4.3-3.49-7.78-7.79-7.78s-7.78,3.48-7.78,7.78,3.48,7.79,7.78,7.79,7.79-3.49,7.79-7.79ZM258.31,187.54c4.3,0,7.78-3.48,7.78-7.78s-3.48-7.79-7.78-7.79-7.79,3.49-7.79,7.79,3.49,7.78,7.79,7.78ZM258.9,482.09l-23.56,3.1.58,4.42,23.56-3.1-.58-4.42ZM260.97,592.03c0-4.3-3.49-7.78-7.79-7.78s-7.79,3.48-7.79,7.78,3.49,7.79,7.79,7.79,7.79-3.49,7.79-7.79ZM251.7,331.78l-23.9,3.24.6,4.42,23.9-3.24-.6-4.42ZM188.24,491.38l.58,4.42,23.55-3.09-.58-4.43-23.55,3.1ZM203.89,338.25l-23.9,3.24.6,4.42,23.9-3.24-.6-4.42ZM141.13,497.57l.58,4.43,23.55-3.1-.58-4.42-23.55,3.09ZM156.09,344.72l-23.9,3.24.6,4.42,23.9-3.23-.6-4.43ZM94.02,503.76l.59,4.43,23.55-3.1-.58-4.42-23.56,3.09ZM108.29,351.2l-23.9,3.24.6,4.42,23.9-3.24-.6-4.42ZM58.67,508.41l.58,4.43,11.8-1.55-.58-4.43-11.8,1.55ZM60.49,357.67l-11.8,1.6.6,4.42,11.8-1.6-.6-4.42Z"/>
      <path d="M2528.59,267.4l-11.08-16.28c-.56-.82-1.48-1.31-2.46-1.31h-11.6c-1.08,0-1.96.88-1.96,1.96v8.36l-320.67-20.65v-7.88c0-.75-.6-1.35-1.34-1.35h-4.78l3.92-90.83c.02-.39-.29-.73-.68-.74l-1.1-.05c-.4-.02-.73.29-.75.68l-3.92,90.94h-5.11l1.99-7.42c.07-.27-.09-.55-.36-.62l-1.47-.39c-.27-.08-.54.08-.61.35l-2.17,8.08h-3.92c-.75,0-1.35.6-1.35,1.35v6.48l-45.7-2.94v-8.35c0-.75-.61-1.35-1.35-1.35h-4.52l3.91-90.6c0-.39-.29-.72-.69-.74l-1.1-.05c-.39-.02-.73.29-.74.68l-3.92,90.71h-5.1l1.84-6.87c.07-.27-.09-.54-.36-.61l-1.47-.4c-.27-.07-.54.09-.62.36l-2.01,7.52h-4.18c-.74,0-1.34.6-1.34,1.35v6.95l-38.49-2.48v-7.92c0-.75-.61-1.35-1.35-1.35h-4.48l3.88-89.88c.02-.39-.29-.72-.68-.74l-1.1-.05c-.39-.01-.73.29-.74.68l-3.89,89.99h-5.27l1.77-6.61c.07-.27-.09-.55-.35-.62l-1.48-.39c-.27-.08-.54.08-.61.35l-1.95,7.27h-4.06c-.74,0-1.34.6-1.34,1.35v6.53l-43.68-2.81v-6.64c0-.74-.6-1.34-1.34-1.34h-4.51l3.9-90.38c.02-.4-.29-.73-.68-.75l-1.1-.05c-.39-.01-.73.29-.74.69l-3.91,90.49h-5.19l2.04-7.62c.08-.27-.08-.54-.35-.61l-1.48-.4c-.26-.07-.54.09-.61.36l-2.22,8.27h-4.12c-.74,0-1.34.6-1.34,1.34v5.24l-5.6-.36c-1.1-.07-1.95-.98-1.95-2.08v-4.9c0-2.77-2.22-5.03-4.98-5.1l-11.65-.25c-2.67-.06-5.03-1.67-6.11-4.11-3.43-7.73-10.45-16.77-24.77-22.85-3.34-1.42-6.91-2.22-10.52-2.4l-2.38-.12v-7.27c0-1.31-1.06-2.37-2.37-2.37h-3.2l3.87-89.64c.02-.38-.27-.69-.64-.71l-1.18-.05c-.37-.02-.69.27-.71.65l-3.87,89.75h-5.29l2.78-7.41c.14-.38-.05-.79-.43-.93l-1.01-.38c-.37-.14-.79.05-.93.42l-3.11,8.3h-.79c-1.3,0-2.36,1.06-2.36,2.37v6.29l-29.02-1.47c0-.06.02-.13.02-.19v-6.34c0-1.31-1.06-2.37-2.37-2.37h-1.63l3.92-90.97c.02-.37-.27-.68-.64-.7l-1.18-.05c-.37-.02-.69.27-.71.64l-3.93,91.08h-6.19l3.28-8.75c.14-.38-.05-.8-.43-.94l-1-.38c-.38-.14-.8.05-.94.43l-3.61,9.64h-1.13c-1.31,0-2.37,1.06-2.37,2.37v5.57l-26.25-1.33v-9.58c0-1.23-.94-2.26-2.17-2.36l-4.33-.37,3.89-89.99c.01-.37-.27-.68-.65-.7l-1.18-.05c-.37-.02-.68.27-.7.64l-3.88,89.88-1.87-.16.26-9.12c.01-.4-.31-.74-.71-.75l-1.07-.03c-.41-.01-.74.31-.75.71l-.25,8.97-2.3-.19c-.53-.05-1.03.09-1.45.35h-67.15c-.38,0-.53-.49-.23-.71l8.24-5.87c.49-.36.66-1.02.38-1.57l-60.42-120.47c-2.1-4.2-5.07-7.73-8.58-10.22-11.83-8.4-26.44-8.41-26.98-8.41h-1.25v12.28h-8.62v-9.97h-112.67v9.97h-8.23l-.31.06-2.56-9.32c-.07-.24-.3-.38-.55-.34l-197.97,36.35c-.17.03-.3.18-.3.36v11.01l-12.17,2.3-4.79-15.52c-.27-.88-1.07-1.47-1.99-1.47h-4.54c-1.15,0-2.09.94-2.09,2.09v17.43l-6.59,1.25c-2.3.43-4.47-1.2-4.71-3.53-.07-.68-.07-1.38.01-2.07.35-3.22-.3-7.93-7-8.61-6.7-.68-9.47,2.78-10.58,5.28-.64,1.45-2.02,2.41-3.6,2.41h-4.58c-1.28,0-2.32-1.04-2.32-2.32v-3.29c0-4.67-2.85-8.67-6.9-10.37l.53-46.32c.01-.43-.34-.79-.77-.79l-1.41-.02c-.43,0-.79.34-.79.77l-.53,45.58c-.45-.05-.9-.09-1.37-.09h-41.23l.52-45.45c.01-.43-.34-.79-.77-.79l-1.41-.02c-.43,0-.79.34-.79.77l-.53,45.53c-2.24.16-4.37,1.06-6.06,2.56l-4.44,3.96c-.89.79-2.03,1.23-3.22,1.23h-17.32c-1.34,0-2.62-.56-3.54-1.55l-3.52-3.81c-1.35-1.45-3.56-1.69-5.19-.56l-.05.04c-1.16.8-2.51,1.23-3.91,1.22h-7.03c-.7,0-1.27.57-1.27,1.27v2.96c0,.71-.58,1.28-1.29,1.28l-5.36-.02.63-54.07c0-.43-.34-.79-.77-.79l-1.42-.02c-.43,0-.78.34-.79.77l-.62,54.09-37.68-.14c-1.67,0-3-1.37-2.97-3.04l.15-7.23c.07-3.82-1.53-7.54-4.53-9.9-2.06-1.64-4.99-3.14-9.07-3.8-1.14-.19-2.07.58-2,1.73.06,1.01-.69,1.87-1.69,1.95l-17.14,1.34-3.26-13.3c-.1-.42-.53-.67-.94-.57l-1.38.34c-.42.1-.67.52-.57.94l3.14,12.82-1.91.15c-1.71.13-3.04,1.54-3.05,3.26-.04,4.28.01,11.86.02,14.26.01.42-.33.76-.74.76-3.28.02-17.16.09-38.76.2l.64-55.34c0-.43-.34-.79-.78-.79l-1.41-.02c-.43,0-.78.34-.79.77l-.64,55.4c-45.49.23-122.68.63-207.4,1.07l1.53-60.49c0-.43-.33-.79-.77-.8l-1.41-.03c-.43-.01-.79.33-.8.76l-1.52,60.57c-19.34.1-39.05.21-58.85.31l1.53-60.81c.01-.43-.33-.79-.76-.8l-1.41-.03c-.44-.01-.79.33-.8.76l-1.54,60.89c-16.58.09-33.21.18-49.73.26l1.54-61.08c.01-.43-.33-.79-.76-.8l-1.42-.03c-.43-.01-.78.33-.8.76l-1.54,61.17c-48.55.25-96.03.49-138.19.71-.41,0-.75-.33-.75-.75v-.78c0-.94-.34-1.86-.96-2.58l-3.62-4.21c-1.65-1.93-4.63-1.93-6.29,0l-3.62,4.21c-.62.72-.96,1.64-.96,2.58v.87c0,.41-.33.75-.75.75-70.06.36-122.54.63-135.57.7-1.99.01-3.86.89-5.14,2.42-6.97,8.35-30,35.92-35.36,42.34-.72.85-1.77,1.34-2.88,1.34h-3.91c-1.07,0-2.08.46-2.8,1.25l-15.7,17.6c-1.4,1.56-2.17,3.58-2.17,5.67v5.2c0,.82-.67,1.49-1.49,1.49h-31.6c-1.32,0-2.39,1.07-2.39,2.39v7.09c0,1.32-1.07,2.39-2.39,2.39h-7c-1.31,0-2.38-1.07-2.38-2.39v-7.19c0-1.32-1.07-2.39-2.39-2.39h-87.87c-1.12,0-2.2.47-2.97,1.29l-8.97,9.49c-.77.82-1.85,1.28-2.97,1.28h-39.9c-1.02,0-2.01.26-2.9.75l-13.73,7.62c-.95.52-1.53,1.52-1.53,2.6v18.75c0,.9-.73,1.62-1.62,1.62h-29.23c-8.08,0-14.64,6.55-14.64,14.64v9.41c0,1.17-.89,2.14-2.06,2.24l-31.55,2.79c-.71.06-1.31.4-1.74.89-.29.33-.69.55-1.14.55H.75c-.44,0-.79.39-.75.83l32.22,343.17c.01.13.12.23.25.23h12.38l1.36,15.15c.77,8.6,7.97,15.18,16.6,15.18h22.68c1.43,0,2.59,1.16,2.59,2.59v12.1c0,1.58.78,3.07,2.09,3.97l11.61,8c1.14.78,2.49,1.2,3.87,1.2h41.61c1.16,0,2.26.56,2.94,1.5l6.03,8.34c.93,1.29,2.43,2.05,4.02,2.05l173.7-.65c2.72,0,5.32,1.07,7.24,2.98l3.99,4c.84.83,1.98,1.31,3.16,1.31h85.22c.2,0,.33.17.34.36.02,1.06.88,1.91,1.94,1.91h60.48c1.42,0,2.67-1.16,2.61-2.58-.06-1.52,1.17-2.78,2.68-2.78h1.04c.61,0,1.08.51,1.09,1.13.02,3.35,2.79,6.04,6.17,5.94,3.19-.1,5.79-3.03,5.79-6.22v-5.19c0-.85.68-1.53,1.53-1.54l13.37-.05v5.47c0,.91.57,1.74,1.42,2.06,4.2,1.59,30.38,10.95,66.33,10.95,19.48,0,41.82-2.75,65.09-10.96.88-.31,1.48-1.14,1.48-2.08v-5.45h32.78v3.03c0,1.52.72,2.95,1.94,3.86l19.67,14.59c1.26.94,2.79,1.44,4.36,1.44h18.31c1.39,0,2.71.6,3.63,1.65l13.32,15.19c.92,1.05,2.24,1.65,3.63,1.65h31.46c1.55,0,2.81-1.26,2.81-2.81v-23.91c0-1.05.86-1.9,1.9-1.9h11.51l-1.59,15.88c-.04.42.26.79.68.83l.71.07c.42.04.79-.26.83-.68l1.61-16.1h32.86c.81,0,1.47.66,1.47,1.47v15.47c0,1.15.93,2.08,2.08,2.08h11.12c2.01,0,3.89-1.02,4.98-2.71l2.66-4.15s.07-.02.11-.04l56,21.18-11.51,3.29c-.49.14-.83.6-.81,1.11,0,.51.37.94.87,1.06l16.53,3.7.62,18.42c.01.54.46.97,1,.97h1.35c.54,0,.98-.43,1-.97l.61-17.99,21.14-4.45c.53-.11.91-.58.89-1.12-.02-.54-.42-1-.95-1.07l-20.76-3.01.43-12.79h21.89c1.02,0,1.85-.83,1.85-1.85v-20.04c0-1.02.83-1.85,1.85-1.85h27.41c.89,0,1.6-.72,1.6-1.6v-.19c0-.88.72-1.6,1.6-1.6h2.09c.88,0,1.6.72,1.6,1.6v11.65c0,.88.71,1.6,1.6,1.6h11.24c.41,2.33,2.43,4.11,4.88,4.11s4.48-1.78,4.89-4.11h8.01c1.06,0,2.05.52,2.64,1.4l8.32,12.31c1.06,1.56,3.36,1.54,4.39-.03l7.81-12.01c.59-.9,1.6-1.45,2.68-1.45h23.02c.77,0,1.39-.62,1.39-1.39v-9.59c0-.77.63-1.4,1.4-1.4h2.45c.77,0,1.4.63,1.4,1.4v24.35c0,.85.69,1.54,1.54,1.54h18.06c6.35,0,11.49-5.14,11.49-11.49v-2.85c0-1.2.98-2.18,2.18-2.18h10.85c.86,0,1.69.42,2.14,1.16,1.11,1.82,4.26,4.88,12.25,2.28.81-.27,1.64.32,1.64,1.17v7.49c0,1.82.87,3.53,2.34,4.61l8.11,5.92c1.23.9,2.72,1.39,4.25,1.39h20.56c1.81,0,3.54-.71,4.84-1.97l4.02-3.94c1.29-1.27,3.03-1.97,4.85-1.97h27.95v55.07h3.99v-55.07h23.94c.98,0,1.82-.7,2-1.67l3-16.45c.18-.95,1-1.63,1.96-1.63h12.92c.84,0,1.66.23,2.38.66l5.68,3.42c.61.37,1.41.18,1.8-.42l.74-1.16c.41-.64.2-1.49-.46-1.87l-3.99-2.29c-.87-.51-1.03-1.71-.32-2.42l3.24-3.23,23.15.35,8.49,17.07c.2.41.7.57,1.1.37l.66-.33c.41-.2.57-.69.37-1.1l-7.94-15.97,27.13.42c1.57.03,3.06-.74,3.94-2.04l7.4-10.85c10.34,7.15,30.99,16.59,67.97,16.59s58.98-8.97,71.41-16.01v3.99c0,1.36,1.11,2.47,2.47,2.47h3.79c1.36,0,2.47-1.11,2.47-2.47v-8.35h29.71c1.45,0,2.84.56,3.89,1.57l4.29,4.15c1.07,1.04,2.52,1.6,4.01,1.57l49.18-1.15c1.69-.04,3.27-.85,4.29-2.19l6.44-8.47c.99-1.31,2.51-2.1,4.15-2.17,15.78-.68,99.03-4.43,116.43-9.01,15.42-4.06,18.32-22.59,18.87-29.79.12-1.65,1.43-2.96,3.08-3.07,6.73-.44,24.31-1.62,45.91-3.2v7.35c0,1.24,1.01,2.25,2.25,2.25h4.68l1.16,8.32c.05.38.4.64.78.59l1.13-.16c.38-.05.64-.4.59-.78l-1.11-7.97h4.2l5.29,91.32c.01.3.27.53.57.51l1.44-.08c.3-.02.53-.28.51-.57l-5.28-91.18h5.12c1.5,0,2.58-1.43,2.17-2.87l-2.37-8.32c9.55-.74,19.41-1.52,29.14-2.34v5.27c0,1.1.89,1.99,1.99,1.99h5.41l1.39,9.98c.06.41.43.69.84.63l1.03-.14c.41-.06.69-.43.64-.84l-1.35-9.63h4.34l5.39,93.04c.02.29.27.52.57.5l1.45-.08c.29-.02.52-.27.5-.57l-5.38-92.89h4.9c1.38,0,2.35-1.37,1.88-2.67l-2.32-6.45c10.81-.99,20.95-2,29.71-2.99v8.46c0,1.07.87,1.94,1.95,1.94h8.18l5.35,92.38c.02.3.27.53.57.51l1.45-.08c.29-.02.52-.27.5-.57l-5.34-92.24h3.01l-.7,7c-.04.41.25.77.66.81l1.04.11c.41.04.77-.26.81-.67l.74-7.25h2.24c1.07,0,1.95-.88,1.95-1.95v-9.59c0-.76-.46-1.41-1.11-1.73,1.77-.31,3.3-.61,4.56-.91,21.27-5.02,30.29-20.21,33.12-26.3.7-1.5,2.21-2.45,3.86-2.41,6.64.13,22.69-1,21.48-15.03l2.94-.31v5.95c0,1.17.95,2.12,2.12,2.12h1.86l2.82,9.11c.11.34.47.53.8.43l1.19-.37c.34-.11.53-.47.43-.81l-2.59-8.36h4.4l6.54,93c.02.36.34.64.71.61l1.2-.08c.36-.03.64-.35.61-.71l-6.47-92.82h5.15c1.17,0,2.12-.95,2.12-2.12v-7.7c0-.16-.02-.31-.05-.46l43.48-4.6v5.95c0,1.17.95,2.12,2.12,2.12h3.21l2.77,8.94c.1.34.46.53.8.42l1.19-.37c.34-.1.53-.46.42-.8l-2.54-8.19h4.22l6.31,90.49c.03.42.39.73.8.7l1.03-.07c.41-.03.72-.39.69-.8l-6.29-90.32h5.94c1.17,0,2.12-.95,2.12-2.12v-8.37l41.72-4.41v6.83c0,1.17.95,2.12,2.12,2.12h2.62l2.24,7.23c.1.33.46.52.8.42l.91-.28c.34-.11.53-.47.42-.8l-2.03-6.57h4.38l6.21,89.1c.03.41.39.72.8.69l.88-.06c.41-.03.72-.39.7-.8l-6.2-88.93h3.4c1.17,0,2.12-.95,2.12-2.12v-7.98c0-.32-.08-.61-.2-.88l50.02-5.3v6.88c0,1.17.95,2.12,2.12,2.12h3l2.44,7.85c.1.34.46.53.8.42l1.19-.37c.34-.1.52-.46.42-.8l-2.2-7.1h3.17l6.21,89.16c.03.41.39.73.81.7l1.02-.08c.41-.02.72-.38.7-.8l-6.21-88.98h4.16c1.17,0,2.12-.95,2.12-2.12v-8.42c0-.19-.03-.37-.08-.54l71.36-7.56,17.64,8.38c.38.18.83.02,1-.36l.44-.93c.18-.37.02-.82-.35-1l-13.91-6.6,241.31-25.54v7.14c0,1.4,1.13,2.54,2.54,2.54h12.75c1.03,0,2.01-.46,2.67-1.26l10.21-12.37c.59-.72.91-1.61.91-2.54v-178.2c0-1.13-.33-2.22-.97-3.15ZM2.61,217.77c-.04-.44.31-.83.75-.83h10.85l1.38,15.35H3.98l-1.37-14.52ZM4.2,234.67h11.6l1.23,13.75H5.49l-1.29-13.75ZM5.71,250.8h11.54l1.23,13.74H7l-1.29-13.74ZM7.23,266.92h11.46l1.23,13.75h-11.4l-1.29-13.75ZM8.74,283.05h11.4l1.23,13.75h-11.34l-1.29-13.75ZM10.26,299.18h11.32l1.23,13.74h-11.26l-1.29-13.74ZM11.77,315.3h11.26l1.23,13.75h-11.2l-1.29-13.75ZM13.28,331.43h11.19l1.23,13.75h-11.12l-1.3-13.75ZM14.8,347.56h11.12l1.23,13.74h-11.06l-1.29-13.74ZM16.31,363.68h11.05l1.24,13.75h-11l-1.29-13.75ZM17.83,379.81h10.98l1.23,13.75h-10.92l-1.29-13.75ZM19.34,395.94h10.91l1.24,13.74h-10.86l-1.29-13.74ZM20.86,412.06h10.84l1.23,13.75h-10.78l-1.29-13.75ZM22.37,428.19h10.77l1.24,13.75h-10.72l-1.29-13.75ZM23.88,444.32h10.71l1.23,13.74h-10.65l-1.29-13.74ZM25.4,460.44h10.64l1.23,13.75h-10.58l-1.29-13.75ZM26.91,476.57h10.57l1.23,13.75h-10.51l-1.29-13.75ZM28.43,492.7h10.5l1.23,13.74h-10.44l-1.29-13.74ZM29.94,508.82h10.43l1.23,13.75h-10.37l-1.29-13.75ZM31.45,524.95h10.37l1.23,13.75h-10.3l-1.3-13.75ZM34.64,556.41c-.13,0-.24-.1-.25-.23l-1.42-15.1h10.29l1.38,15.33h-10ZM49.29,363.69l-.6-4.42,11.8-1.6.6,4.42-11.8,1.6ZM59.25,512.84l-.58-4.43,11.8-1.55.58,4.43-11.8,1.55ZM84.99,358.86l-.6-4.42,23.9-3.24.6,4.42-23.9,3.24ZM94.61,508.19l-.59-4.43,23.56-3.09.58,4.42-23.55,3.1ZM132.19,347.96l23.9-3.24.6,4.43-23.9,3.23-.6-4.42ZM141.71,502l-.58-4.43,23.55-3.09.58,4.42-23.55,3.1ZM321.29,158.17c4.3,0,7.79,3.49,7.79,7.79s-3.49,7.78-7.79,7.78-7.78-3.48-7.78-7.78,3.48-7.79,7.78-7.79ZM308.95,171.97c4.3,0,7.79,3.49,7.79,7.79s-3.49,7.78-7.79,7.78-7.79-3.48-7.79-7.78,3.49-7.79,7.79-7.79ZM299.5,325.31l.6,4.42-23.9,3.23-.6-4.42,23.9-3.23ZM275.84,179.76c0-4.3,3.49-7.79,7.79-7.79s7.79,3.49,7.79,7.79-3.49,7.78-7.79,7.78-7.79-3.48-7.79-7.78ZM278.18,584.25c4.3,0,7.79,3.48,7.79,7.78s-3.49,7.79-7.79,7.79-7.78-3.49-7.78-7.79,3.48-7.78,7.78-7.78ZM290.85,598.05c4.3,0,7.78,3.48,7.78,7.78s-3.48,7.79-7.78,7.79-7.79-3.49-7.79-7.79,3.48-7.78,7.79-7.78ZM283.03,483.42l-.58-4.43,23.55-3.1.58,4.43-23.55,3.1ZM290.15,143.71c0-.49.4-.88.88-.88h13.19c.49,0,.88.39.88.88v8.07c0,.48-.39.88-.88.88h-13.19c-.48,0-.88-.4-.88-.88v-8.07ZM296.29,158.17c4.3,0,7.79,3.49,7.79,7.79s-3.49,7.78-7.79,7.78-7.79-3.48-7.79-7.78,3.49-7.79,7.79-7.79ZM272.84,143.71c0-.49.39-.88.87-.88h13.19c.49,0,.88.39.88.88v8.07c0,.48-.39.88-.88.88h-13.19c-.48,0-.87-.4-.87-.88v-8.07ZM270.97,158.17c4.3,0,7.78,3.49,7.78,7.79s-3.48,7.78-7.78,7.78-7.79-3.48-7.79-7.78,3.49-7.79,7.79-7.79ZM258.31,171.97c4.3,0,7.78,3.49,7.78,7.79s-3.48,7.78-7.78,7.78-7.79-3.48-7.79-7.78,3.49-7.79,7.79-7.79ZM179.99,341.49l23.9-3.24.6,4.42-23.9,3.24-.6-4.42ZM188.82,495.8l-.58-4.42,23.55-3.1.58,4.43-23.55,3.09ZM227.8,335.02l23.9-3.24.6,4.42-23.9,3.24-.6-4.42ZM235.34,485.19l23.56-3.1.58,4.42-23.56,3.1-.58-4.42ZM245.39,592.03c0-4.3,3.49-7.78,7.79-7.78s7.79,3.48,7.79,7.78-3.49,7.79-7.79,7.79-7.79-3.49-7.79-7.79ZM257.74,605.83c0-4.3,3.48-7.78,7.78-7.78s7.79,3.48,7.79,7.78-3.49,7.79-7.79,7.79-7.78-3.49-7.78-7.79ZM285.68,625.54c0,.48-.4.88-.88.88h-13.19c-.48,0-.88-.4-.88-.88v-8.07c0-.49.4-.88.88-.88h13.19c.48,0,.88.39.88.88v8.07ZM303.51,625.54c0,.48-.4.88-.88.88h-13.19c-.48,0-.88-.4-.88-.88v-8.07c0-.49.4-.88.88-.88h13.19c.48,0,.88.39.88.88v8.07ZM295.72,592.03c0-4.3,3.49-7.78,7.79-7.78s7.78,3.48,7.78,7.78-3.48,7.79-7.78,7.79-7.79-3.49-7.79-7.79ZM321.34,625.54c0,.48-.4.88-.88.88h-13.19c-.49,0-.88-.4-.88-.88v-8.07c0-.49.39-.88.88-.88h13.19c.48,0,.88.39.88.88v8.07ZM316.17,613.62c-4.3,0-7.79-3.49-7.79-7.79s3.49-7.78,7.79-7.78,7.78,3.48,7.78,7.78-3.48,7.79-7.78,7.79ZM323.4,322.07l23.9-3.24.6,4.43-23.9,3.23-.6-4.42ZM330.14,477.22l-.58-4.42,23.55-3.1.58,4.43-23.55,3.09ZM371.2,315.6l23.91-3.24.6,4.42-23.91,3.24-.6-4.42ZM377.24,471.03l-.58-4.42,23.55-3.1.59,4.42-23.56,3.1ZM419.01,309.12l23.9-3.23.6,4.42-23.9,3.24-.6-4.43ZM424.35,464.84l-.58-4.43,23.55-3.09.58,4.42-23.55,3.1ZM466.81,302.65l23.9-3.24.6,4.43-23.9,3.23-.6-4.42ZM471.45,458.64l-.58-4.42,23.56-3.1.58,4.43-23.56,3.09ZM636.33,436.97l-23.56,3.09-.58-4.42,23.56-3.1.58,4.43ZM634.12,279.99l.6,4.43-23.9,3.23-.6-4.42,23.9-3.24ZM589.22,443.16l-23.55,3.1-.58-4.43,23.55-3.09.58,4.42ZM586.32,286.47l.6,4.42-23.9,3.24-.6-4.43,23.9-3.23ZM515.21,300.6l-.6-4.42,23.9-3.24.6,4.42-23.9,3.24ZM518.56,452.45l-.58-4.42,23.55-3.1.58,4.43-23.55,3.09ZM544.04,636.53c-5.91-1.63-9.81-3.04-11.21-3.57v-5.48h8.57c1.44.39,3,.79,4.66,1.19l-2.02,7.86ZM558.42,639.88c-4.61-.9-8.72-1.86-12.22-2.78l2.03-7.92c3.08.71,6.49,1.42,10.19,2.08v8.62ZM574.88,642.41c-5.12-.58-9.88-1.31-14.22-2.11v-8.65c4.38.74,9.13,1.41,14.22,1.94v8.82ZM591.34,643.61c-4.98-.17-9.73-.5-14.23-.96v-8.84c4.51.43,9.27.74,14.23.89v8.91ZM607.8,643.5c-4.9.23-9.65.28-14.23.18v-8.91c4.58.09,9.33.05,14.23-.16v8.89ZM624.26,642.05c-4.85.63-9.61,1.09-14.23,1.35v-8.9c4.63-.25,9.38-.65,14.23-1.24v8.79ZM640.72,639.16c-4.82,1.06-9.57,1.93-14.23,2.59v-8.76c4.66-.61,9.41-1.4,14.23-2.38v8.55ZM657.18,634.75c-4.8,1.53-9.54,2.81-14.23,3.91v-8.51c3.62-.77,7.27-1.66,10.96-2.67h3.27v7.27ZM658.02,276.76l23.9-3.24.6,4.42-23.9,3.24-.6-4.42ZM659.41,634.01v-6.53h3.28v5.43c-1.09.39-2.18.73-3.28,1.1ZM659.88,433.87l-.58-4.42,23.55-3.1.58,4.43-23.55,3.09ZM729.73,267.05l.6,4.42-23.91,3.24-.59-4.43,23.9-3.23ZM706.99,427.68l-.59-4.43,23.56-3.09.58,4.42-23.55,3.1ZM754.09,421.49l-.58-4.43,23.55-3.1.58,4.43-23.55,3.1ZM754.23,268.23l-.6-4.42,23.9-3.24.6,4.43-23.9,3.23ZM801.2,415.29l-.58-4.42,23.55-3.1.58,4.43-23.55,3.09ZM802.03,261.76l-.6-4.42,23.9-3.24.6,4.42-23.9,3.24ZM920.94,241.15l.6,4.43-23.9,3.23-.6-4.42,23.9-3.24ZM918.38,395.38l.58,4.43-23.55,3.1-.58-4.43,23.55-3.1ZM873.14,247.63l.59,4.42-23.9,3.24-.6-4.43,23.91-3.23ZM854.06,652.11c0,1.22-1.04,2.2-2.29,2.08-1.09-.1-1.89-1.1-1.89-2.2v-10.79c0-.52.42-.93.93-.93h2.31c.52,0,.93.42.93.93v10.91ZM848.3,409.1l-.58-4.43,23.56-3.09.58,4.42-23.56,3.1ZM869.88,650.81c.77-.34,1.61-.54,2.48-.54,1.26,0,2.28-1.02,2.28-2.28v-5.74c0-1.21.97-2.18,2.18-2.18s2.18-.98,2.18-2.19v-2.93h21.84v9.15c0,1.73,1.41,3.14,3.14,3.14h7.21c2.63,0,4.75-2.13,4.75-4.75v-7.54h8.03c1.02,0,1.85.83,1.85,1.86v22.06c0,1.02.83,1.85,1.85,1.85h.43l.38,11.5-1.13.32-57.47-21.73ZM917.07,677.8l10.34-2.95,1.17.17.18,5.4-11.69-2.62ZM947.95,677.82l-14.45,3.04.17-5.11,14.28,2.07ZM942.52,396.71l-.59-4.42,23.56-3.1.58,4.43-23.55,3.09ZM945.44,242.34l-.6-4.42,23.9-3.24.6,4.42-23.9,3.24ZM989.62,390.52l-.58-4.43,23.55-3.09.59,4.42-23.56,3.1ZM993.24,235.87l-.6-4.42,23.9-3.24.6,4.42-23.9,3.24ZM1036.73,384.33l-.58-4.43,23.55-3.1.58,4.43-23.55,3.1ZM1041.04,229.39l-.59-4.42,23.9-3.23.6,4.42-23.91,3.23ZM1083.83,378.13l-.58-4.42,23.56-3.1.58,4.43-23.56,3.09ZM1088.85,222.92l-.6-4.42,23.9-3.24.6,4.43-23.9,3.23ZM1130.94,371.94l-.58-4.43,23.55-3.09.58,4.42-23.55,3.1ZM1136.65,216.45l-.6-4.42,23.9-3.24.6,4.42-23.9,3.24ZM1201.08,366.29c-7.6-1.23-15.43-1.41-23.07-.53l-.51-4.43c8.04-.93,16.28-.74,24.29.55l-.71,4.41ZM1184.45,209.98l-.6-4.43,23.91-3.23.59,4.42-23.9,3.24ZM1246.86,378.07l-22.95-6.13,1.15-4.31,22.95,6.13-1.15,4.31ZM1232.26,203.5l-.6-4.42,23.9-3.24.6,4.42-23.9,3.24ZM1497.13,24.32c.2-.03.4.09.46.29l1.91,6.95-8.98,1.7-1.09-7.52,7.7-1.42ZM1486.95,26.19l1.09,7.54-10.38,1.96-.71-7.66,10-1.84ZM1474.45,28.49l.71,7.67-10.25,1.94-.69-7.73,10.23-1.88ZM1477.53,435.02l-1.15,4.32-22.95-6.13,1.15-4.31,22.95,6.12ZM1461.72,30.82l.69,7.75-10.21,1.93-.83-7.78,10.35-1.9ZM1436.15,35.52l.76,7.87-10.27,1.94-.8-7.92,10.31-1.89ZM1446.77,169.95l.6,4.42-23.9,3.24-.6-4.42,23.9-3.24ZM1413.74,39.63l9.61-1.76.79,7.93-10.4,1.97v-8.14ZM1400.98,41.98l10.23-1.88v8.15l-10.23,1.93v-8.2ZM1388.23,44.32l10.23-1.88v8.22l-10.23,1.93v-8.27ZM1375.48,46.66l10.22-1.88v8.29l-10.22,1.93v-8.34ZM1398.97,176.42l.6,4.43-23.91,3.23-.59-4.42,23.9-3.24ZM1362.73,49l10.22-1.88v8.36l-10.22,1.93v-8.41ZM1362.77,404.39l22.95,6.13-1.15,4.31-22.95-6.13,1.15-4.31ZM1349.98,51.34l10.22-1.88v8.43l-10.22,1.93v-8.48ZM1351.76,187.32l-23.9,3.24-.6-4.43,23.9-3.23.6,4.42ZM1337.22,53.68l10.23-1.87v8.49l-10.23,1.93v-8.55ZM1324.47,56.02l10.23-1.87v8.56l-10.23,1.93v-8.62ZM1292.76,390.32l-22.95-6.12,1.15-4.32,22.95,6.13-1.15,4.31ZM1280.06,197.03l-.6-4.42,23.9-3.24.6,4.42-23.9,3.24ZM1309.19,67.53l-6.05,1.14v-8.43c0-.17.12-.32.3-.35l5.75-1.06v8.7ZM1311.72,58.37l10.22-1.88v8.63l-10.22,1.93v-8.68ZM1315.72,396.45l1.15-4.31,22.95,6.12-1.15,4.32-22.95-6.13ZM1344.41,624.85c-1.72-.98-3.24-1.94-4.59-2.86l.07-.1c.66-.96,1.85-1.42,2.98-1.12.43.11.96.24,1.54.38v3.7ZM1354.76,629.77c-3.05-1.21-5.74-2.46-8.12-3.71v-4.37c2.16.51,4.88,1.12,8.12,1.77v6.31ZM1365.11,633.21c-2.93-.81-5.63-1.68-8.12-2.6v-6.71c2.47.47,5.2.96,8.12,1.44v7.87ZM1375.46,635.59c-2.87-.53-5.58-1.13-8.12-1.78v-8.11c2.56.4,5.28.79,8.12,1.16v8.73ZM1385.81,637.14c-2.84-.33-5.55-.71-8.12-1.15v-8.84c2.61.31,5.32.61,8.12.87v9.12ZM1396.16,638c-2.82-.15-5.52-.37-8.12-.63v-9.15c2.64.23,5.35.43,8.12.59v9.19ZM1406.51,638.26h-.12c-2.77,0-5.42-.07-8-.18v-9.15c2.66.13,5.37.23,8.12.28v9.05ZM1408.68,416.64l22.95,6.13-1.15,4.31-22.96-6.13,1.16-4.31ZM1416.86,637.99c-2.62.13-5.34.21-8.12.24v-8.98c2.67.03,5.38.01,8.12-.05v8.79ZM1427.21,637.14c-2.61.29-5.32.52-8.12.7v-8.69c2.68-.08,5.39-.22,8.12-.41v8.4ZM1437.56,635.67c-2.6.46-5.3.86-8.12,1.21v-8.28c2.69-.21,5.4-.49,8.12-.81v7.88ZM1447.91,633.5c-2.57.64-5.28,1.24-8.12,1.77v-7.74c2.7-.35,5.41-.77,8.12-1.23v7.2ZM1439.4,42.92l-.76-7.86,10.23-1.88.83,7.79-10.3,1.95ZM1458.26,630.48c-2.53.86-5.23,1.68-8.12,2.45v-7.02c2.71-.51,5.42-1.1,8.12-1.74v6.31ZM1468.61,626.45c-2.45,1.1-5.16,2.2-8.12,3.26v-6.08c2.72-.69,5.43-1.46,8.12-2.3v5.12ZM1477.8,621.75c-2.01,1.17-4.31,2.41-6.96,3.68v-4.74c.98-.25,1.98-.42,2.99-.42h3.97v1.48ZM1471.27,171.14l-.6-4.43,23.9-3.23.6,4.42-23.9,3.24ZM1509.59,550.63h-4.46v-11.9h4.46v11.9ZM1509.59,514.95h-4.46v-23.76h4.46v23.76ZM1509.59,467.44h-4.46v-1.42c0-6.9-2.92-13.55-8.01-18.23l3.02-3.28c6.01,5.52,9.45,13.36,9.45,21.51v1.42ZM1787.99,195.83c0,4.3-3.49,7.79-7.79,7.79s-7.79-3.49-7.79-7.79,3.49-7.78,7.79-7.78,7.79,3.48,7.79,7.78ZM1778.24,168.53h7.92c.19,0,.37.05.53.12v9.18l-8.45-.43v-8.87ZM1768.08,168.53h7.63v8.74l-7.63-.39v-8.35ZM1775.32,209.63c0,4.3-3.48,7.79-7.78,7.79s-7.79-3.49-7.79-7.79,3.49-7.78,7.79-7.78,7.78,3.48,7.78,7.78ZM1757.91,168.53h7.64v8.22l-7.64-.38v-7.84ZM1747.76,168.53h7.63v7.71l-7.63-.39v-7.32ZM1754.88,188.05c4.3,0,7.78,3.48,7.78,7.78s-3.48,7.79-7.78,7.79-7.79-3.49-7.79-7.79,3.49-7.78,7.79-7.78ZM1750,209.63c0,4.3-3.48,7.79-7.78,7.79s-7.79-3.49-7.79-7.79,3.49-7.78,7.79-7.78,7.78,3.48,7.78,7.78ZM1737.59,168.53h7.64v7.19l-7.64-.38v-6.81ZM1737.66,195.83c0,4.3-3.49,7.79-7.79,7.79s-7.78-3.49-7.78-7.79,3.48-7.78,7.78-7.78,7.79,3.48,7.79,7.78ZM1727.43,168.53h7.64v6.68l-7.64-.39v-6.29ZM1682.86,71.39l-9.89,4.38-6.21-12.27,10.34-3.6,5.76,11.49ZM1614.85,23.59h5.83v7.44h-5.83v-7.44ZM1577.63,23.59h6.77v7.44h-6.77v-7.44ZM1568.32,23.59h6.78v7.44h-6.78v-7.44ZM1531.1,23.59h6.78v7.44h-6.78v-7.44ZM1521.79,23.59h6.78v7.44h-6.78v-7.44ZM1513.05,31.03v-7.44h6.21v7.44h-6.21ZM1519.07,164.66l-.59-4.42,23.9-3.24.59,4.43-23.9,3.23ZM1547.18,31.03h-6.78v-7.44h6.78v7.44ZM1556.49,31.03h-6.78v-7.44h6.78v7.44ZM1565.79,31.03h-6.78v-7.44h6.78v7.44ZM1566.88,158.19l-.6-4.42,23.9-3.24.6,4.42-23.9,3.24ZM1593.71,31.03h-6.78v-7.44h6.78v7.44ZM1603.02,31.03h-6.78v-7.44h6.78v7.44ZM1612.32,31.03h-6.78v-7.44h6.78v7.44ZM1614.68,151.72l-.6-4.43,23.9-3.23.6,4.42-23.9,3.24ZM1639.42,31.61c-1.65-.35-3.35-.53-5.07-.56v-9.73c1.1.06,2.89.21,5.07.55v9.74ZM1641.95,32.29v-9.96c4.21.87,9.36,2.45,14.21,5.33l-5.74,9.11c-2.52-1.98-5.39-3.5-8.47-4.48ZM1652.36,38.45l5.93-9.43h0c3.3,2.26,6.09,5.55,8.07,9.49l1.77,3.52-10.51,3.47c-1.38-2.67-3.17-5.04-5.27-7.05ZM1669.28,44.32l6.67,13.3-10.35,3.6-6.81-13.44,10.49-3.46ZM1662.48,145.24l-.6-4.42,11.8-1.6.6,4.43-11.8,1.59ZM1674.12,78.03l9.87-4.38,6.04,12.04-9.82,4.35-6.09-12.01ZM1681.35,92.3l9.82-4.35,5.99,11.96-9.76,4.32-6.05-11.93ZM1688.55,106.49l9.75-4.32,6.2,12.36-9.7,4.3-6.25-12.34ZM1695.95,121.09l9.68-4.29,6.21,12.37-9.63,4.27-6.26-12.35ZM1703.35,135.7l9.63-4.26,6.03,12.03-9.57,4.24-6.09-12.01ZM1710.59,149.97l9.55-4.23,5.68,11.31c.28.55.11,1.21-.39,1.57l-7.68,5.49-7.16-14.14ZM1718.23,174.35v-5.82h6.68v6.16l-6.68-.34ZM1727.5,559.01c-4.3,0-7.79-3.49-7.79-7.79s3.49-7.78,7.79-7.78,7.78,3.48,7.78,7.78-3.48,7.79-7.78,7.79ZM1732.37,537.42c0-4.3,3.49-7.78,7.79-7.78s7.79,3.48,7.79,7.78-3.49,7.79-7.79,7.79-7.79-3.49-7.79-7.79ZM1752.82,559.01c-4.3,0-7.79-3.49-7.79-7.79s3.49-7.78,7.79-7.78,7.79,3.48,7.79,7.78-3.49,7.79-7.79,7.79ZM1757.69,537.42c0-4.3,3.49-7.78,7.79-7.78s7.79,3.48,7.79,7.78-3.49,7.79-7.79,7.79-7.79-3.49-7.79-7.79ZM1778.14,559.01c-4.3,0-7.79-3.49-7.79-7.79s3.49-7.78,7.79-7.78,7.79,3.48,7.79,7.78-3.49,7.79-7.79,7.79ZM1790.49,545.21c-4.3,0-7.79-3.49-7.79-7.79s3.49-7.78,7.79-7.78,7.78,3.48,7.78,7.78-3.48,7.79-7.78,7.79ZM1792.86,217.42c-4.3,0-7.79-3.49-7.79-7.79s3.49-7.78,7.79-7.78,7.79,3.48,7.79,7.78-3.49,7.79-7.79,7.79ZM2517.4,255.46l9.06,13.3-6.5,3.48c-.77-4.05-3.22-7.51-6.62-9.62l4.06-7.16ZM2504.02,252.96c0-.34.27-.62.62-.62h10.41c.15,0,.28.08.37.2l.4.59-4.75,8.35c-1.39-.56-2.89-.92-4.46-1.02l-2.59-.17v-7.33ZM2503.75,462.38c-.41,0-.75-.34-.75-.75v-6.66l3.69-.39c1.5-.16,2.92-.54,4.25-1.1l3.93,8.91h-11.12ZM2517.14,461.27l-3.95-8.95c2.3-1.46,4.16-3.51,5.39-5.93l7.72,3.77-9.16,11.11ZM2527.03,447.7l-7.5-3.66c.35-1.12.57-2.29.65-3.49h6.85v7.15ZM2527.03,438.02h-6.8v-13.36h6.8v13.36ZM2527.03,422.13h-6.8v-13.36h6.8v13.36ZM2527.03,406.24h-6.8v-13.36h6.8v13.36ZM2527.03,390.35h-6.8v-13.36h6.8v13.36ZM2527.03,374.46h-6.8v-13.36h6.8v13.36ZM2527.03,358.57h-6.8v-13.36h6.8v13.36ZM2527.03,342.68h-6.8v-13.36h6.8v13.36ZM2527.03,326.79h-6.8v-13.36h6.8v13.36ZM2527.03,310.9h-6.8v-13.36h6.8v13.36ZM2527.03,295.01h-6.8v-13.36h6.8v13.36ZM2527.03,279.12h-6.8v-4.15l6.8-3.64v7.79Z"/>
      <g>
        <g>
          <rect class="cls-1" x="58.91" y="507.62" width="11.9" height="4.47" transform="translate(-65.85 12.79) rotate(-7.48)"/>
          <path class="cls-1" d="M1177.5,361.33l.51,4.43c7.64-.88,15.47-.7,23.07.53l.71-4.41c-8.01-1.29-16.25-1.48-24.29-.55ZM1153.91,364.42l-23.55,3.09.58,4.43,23.55-3.1-.58-4.42ZM1225.06,367.63l-1.15,4.31,22.95,6.13,1.15-4.31-22.95-6.13ZM1106.81,370.61l-23.56,3.1.58,4.42,23.56-3.09-.58-4.43ZM1059.7,376.8l-23.55,3.1.58,4.43,23.55-3.1-.58-4.43ZM1270.96,379.88l-1.15,4.32,22.95,6.12,1.15-4.31-22.95-6.13ZM1012.59,383l-23.55,3.09.58,4.43,23.56-3.1-.59-4.42ZM965.49,389.19l-23.56,3.1.59,4.42,23.55-3.09-.58-4.43ZM1316.87,392.14l-1.15,4.31,22.95,6.13,1.15-4.32-22.95-6.12ZM918.38,395.38l-23.55,3.1.58,4.43,23.55-3.1-.58-4.43ZM871.28,401.58l-23.56,3.09.58,4.43,23.56-3.1-.58-4.42ZM1362.77,404.39l-1.15,4.31,22.95,6.13,1.15-4.31-22.95-6.13ZM824.17,407.77l-23.55,3.1.58,4.42,23.55-3.09-.58-4.43ZM777.06,413.96l-23.55,3.1.58,4.43,23.55-3.1-.58-4.43ZM1408.68,416.64l-1.16,4.31,22.96,6.13,1.15-4.31-22.95-6.13ZM729.96,420.16l-23.56,3.09.59,4.43,23.55-3.1-.58-4.42ZM682.85,426.35l-23.55,3.1.58,4.42,23.55-3.09-.58-4.43ZM1454.58,428.9l-1.15,4.31,22.95,6.13,1.15-4.32-22.95-6.12ZM635.75,432.54l-23.56,3.1.58,4.42,23.56-3.09-.58-4.43ZM588.64,438.74l-23.55,3.09.58,4.43,23.55-3.1-.58-4.42ZM541.53,444.93l-23.55,3.1.58,4.42,23.55-3.09-.58-4.43ZM494.43,451.12l-23.56,3.1.58,4.42,23.56-3.09-.58-4.43ZM447.32,457.32l-23.55,3.09.58,4.43,23.55-3.1-.58-4.42ZM1500.14,444.51l-3.02,3.28c5.09,4.68,8.01,11.33,8.01,18.23v1.42h4.46v-1.42c0-8.15-3.44-15.99-9.45-21.51ZM400.21,463.51l-23.55,3.1.58,4.42,23.56-3.1-.59-4.42ZM353.11,469.7l-23.55,3.1.58,4.42,23.55-3.09-.58-4.43ZM306,475.89l-23.55,3.1.58,4.43,23.55-3.1-.58-4.43ZM258.9,482.09l-23.56,3.1.58,4.42,23.56-3.1-.58-4.42ZM211.79,488.28l-23.55,3.1.58,4.42,23.55-3.09-.58-4.43ZM164.68,494.48l-23.55,3.09.58,4.43,23.55-3.1-.58-4.42ZM117.58,500.67l-23.56,3.09.59,4.43,23.55-3.1-.58-4.42ZM1505.13,491.19v23.76h4.46v-23.76h-4.46Z"/>
          <rect class="cls-1" x="1505.13" y="538.73" width="4.46" height="11.9"/>
        </g>
        <g>
          <rect class="cls-1" x="48.94" y="358.45" width="11.91" height="4.46" transform="translate(-47.96 10.65) rotate(-7.72)"/>
          <path class="cls-1" d="M1637.98,144.06l-23.9,3.23.6,4.43,23.9-3.24-.6-4.42ZM1590.18,150.53l-23.9,3.24.6,4.42,23.9-3.24-.6-4.42ZM1542.38,157l-23.9,3.24.59,4.42,23.9-3.23-.59-4.43ZM1494.57,163.48l-23.9,3.23.6,4.43,23.9-3.24-.6-4.42ZM1446.77,169.95l-23.9,3.24.6,4.42,23.9-3.24-.6-4.42ZM1398.97,176.42l-23.9,3.24.59,4.42,23.91-3.23-.6-4.43ZM1351.16,182.9l-23.9,3.23.6,4.43,23.9-3.24-.6-4.42ZM1303.36,189.37l-23.9,3.24.6,4.42,23.9-3.24-.6-4.42ZM1255.56,195.84l-23.9,3.24.6,4.42,23.9-3.24-.6-4.42ZM1207.76,202.32l-23.91,3.23.6,4.43,23.9-3.24-.59-4.42ZM1159.95,208.79l-23.9,3.24.6,4.42,23.9-3.24-.6-4.42ZM1112.15,215.26l-23.9,3.24.6,4.42,23.9-3.23-.6-4.43ZM1064.35,221.74l-23.9,3.23.59,4.42,23.91-3.23-.6-4.42ZM1016.54,228.21l-23.9,3.24.6,4.42,23.9-3.24-.6-4.42ZM968.74,234.68l-23.9,3.24.6,4.42,23.9-3.24-.6-4.42ZM920.94,241.15l-23.9,3.24.6,4.42,23.9-3.23-.6-4.43ZM873.14,247.63l-23.91,3.23.6,4.43,23.9-3.24-.59-4.42ZM825.33,254.1l-23.9,3.24.6,4.42,23.9-3.24-.6-4.42ZM777.53,260.57l-23.9,3.24.6,4.42,23.9-3.23-.6-4.43ZM729.73,267.05l-23.9,3.23.59,4.43,23.91-3.24-.6-4.42ZM681.92,273.52l-23.9,3.24.6,4.42,23.9-3.24-.6-4.42ZM634.12,279.99l-23.9,3.24.6,4.42,23.9-3.23-.6-4.43ZM586.32,286.47l-23.9,3.23.6,4.43,23.9-3.24-.6-4.42ZM538.51,292.94l-23.9,3.24.6,4.42,23.9-3.24-.6-4.42ZM490.71,299.41l-23.9,3.24.6,4.42,23.9-3.23-.6-4.43ZM442.91,305.89l-23.9,3.23.6,4.43,23.9-3.24-.6-4.42ZM395.11,312.36l-23.91,3.24.6,4.42,23.91-3.24-.6-4.42ZM347.3,318.83l-23.9,3.24.6,4.42,23.9-3.23-.6-4.43ZM299.5,325.31l-23.9,3.23.6,4.42,23.9-3.23-.6-4.42ZM251.7,331.78l-23.9,3.24.6,4.42,23.9-3.24-.6-4.42ZM203.89,338.25l-23.9,3.24.6,4.42,23.9-3.24-.6-4.42ZM156.09,344.72l-23.9,3.24.6,4.42,23.9-3.23-.6-4.43ZM108.29,351.2l-23.9,3.24.6,4.42,23.9-3.24-.6-4.42Z"/>
          <polygon class="cls-1" points="1674.28 143.65 1662.48 145.24 1661.88 140.82 1673.68 139.22 1674.28 143.65"/>
        </g>
        <g>
          <g>
            <g>
              <g>
                <g>
                  <path class="cls-1" d="M316.74,179.76c0,4.3-3.49,7.78-7.79,7.78s-7.79-3.48-7.79-7.78,3.49-7.79,7.79-7.79,7.79,3.49,7.79,7.79Z"/>
                  <path class="cls-1" d="M291.42,179.76c0,4.3-3.49,7.78-7.79,7.78s-7.79-3.48-7.79-7.78,3.49-7.79,7.79-7.79,7.79,3.49,7.79,7.79Z"/>
                </g>
                <path class="cls-1" d="M266.09,179.76c0,4.3-3.48,7.78-7.78,7.78s-7.79-3.48-7.79-7.78,3.49-7.79,7.79-7.79,7.78,3.49,7.78,7.79Z"/>
                <path class="cls-1" d="M278.75,165.96c0,4.3-3.48,7.78-7.78,7.78s-7.79-3.48-7.79-7.78,3.49-7.79,7.79-7.79,7.78,3.49,7.78,7.79Z"/>
                <path class="cls-1" d="M304.08,165.96c0,4.3-3.49,7.78-7.79,7.78s-7.79-3.48-7.79-7.78,3.49-7.79,7.79-7.79,7.79,3.49,7.79,7.79Z"/>
                <path class="cls-1" d="M329.08,165.96c0,4.3-3.49,7.78-7.79,7.78s-7.78-3.48-7.78-7.78,3.48-7.79,7.78-7.79,7.79,3.49,7.79,7.79Z"/>
              </g>
              <g>
                <path class="cls-1" d="M287.78,143.71v8.07c0,.48-.39.88-.88.88h-13.19c-.48,0-.87-.4-.87-.88v-8.07c0-.49.39-.88.87-.88h13.19c.49,0,.88.39.88.88Z"/>
                <path class="cls-1" d="M305.1,143.71v8.07c0,.48-.39.88-.88.88h-13.19c-.48,0-.88-.4-.88-.88v-8.07c0-.49.4-.88.88-.88h13.19c.49,0,.88.39.88.88Z"/>
              </g>
            </g>
            <g>
              <g>
                <g>
                  <path class="cls-1" d="M273.31,605.83c0,4.3-3.49,7.79-7.79,7.79s-7.78-3.49-7.78-7.79,3.48-7.78,7.78-7.78,7.79,3.48,7.79,7.78Z"/>
                  <path class="cls-1" d="M298.63,605.83c0,4.3-3.48,7.79-7.78,7.79s-7.79-3.49-7.79-7.79,3.48-7.78,7.79-7.78,7.78,3.48,7.78,7.78Z"/>
                </g>
                <path class="cls-1" d="M323.95,605.83c0,4.3-3.48,7.79-7.78,7.79s-7.79-3.49-7.79-7.79,3.49-7.78,7.79-7.78,7.78,3.48,7.78,7.78Z"/>
                <path class="cls-1" d="M311.29,592.03c0,4.3-3.48,7.79-7.78,7.79s-7.79-3.49-7.79-7.79,3.49-7.78,7.79-7.78,7.78,3.48,7.78,7.78Z"/>
                <path class="cls-1" d="M285.97,592.03c0,4.3-3.49,7.79-7.79,7.79s-7.78-3.49-7.78-7.79,3.48-7.78,7.78-7.78,7.79,3.48,7.79,7.78Z"/>
                <path class="cls-1" d="M260.97,592.03c0,4.3-3.49,7.79-7.79,7.79s-7.79-3.49-7.79-7.79,3.49-7.78,7.79-7.78,7.79,3.48,7.79,7.78Z"/>
              </g>
              <g>
                <g>
                  <rect class="cls-1" x="270.73" y="616.59" width="14.95" height="9.83" rx=".88" ry=".88"/>
                  <rect class="cls-1" x="288.56" y="616.59" width="14.95" height="9.83" rx=".88" ry=".88"/>
                </g>
                <path class="cls-1" d="M321.34,617.47v8.07c0,.48-.4.88-.88.88h-13.19c-.49,0-.88-.4-.88-.88v-8.07c0-.49.39-.88.88-.88h13.19c.48,0,.88.39.88.88Z"/>
              </g>
            </g>
          </g>
          <g>
            <g>
              <g>
                <path class="cls-1" d="M1785.93,551.22c0,4.3-3.49,7.79-7.79,7.79s-7.79-3.49-7.79-7.79,3.49-7.78,7.79-7.78,7.79,3.48,7.79,7.78Z"/>
                <path class="cls-1" d="M1760.61,551.22c0,4.3-3.49,7.79-7.79,7.79s-7.79-3.49-7.79-7.79,3.49-7.78,7.79-7.78,7.79,3.48,7.79,7.78Z"/>
              </g>
              <path class="cls-1" d="M1735.28,551.22c0,4.3-3.48,7.79-7.78,7.79s-7.79-3.49-7.79-7.79,3.49-7.78,7.79-7.78,7.78,3.48,7.78,7.78Z"/>
              <path class="cls-1" d="M1747.95,537.42c0,4.3-3.49,7.79-7.79,7.79s-7.79-3.49-7.79-7.79,3.49-7.78,7.79-7.78,7.79,3.48,7.79,7.78Z"/>
              <path class="cls-1" d="M1773.27,537.42c0,4.3-3.49,7.79-7.79,7.79s-7.79-3.49-7.79-7.79,3.49-7.78,7.79-7.78,7.79,3.48,7.79,7.78Z"/>
              <path class="cls-1" d="M1798.27,537.42c0,4.3-3.48,7.79-7.78,7.79s-7.79-3.49-7.79-7.79,3.49-7.78,7.79-7.78,7.78,3.48,7.78,7.78Z"/>
            </g>
            <g>
              <g>
                <path class="cls-1" d="M1750,209.63c0,4.3-3.48,7.79-7.78,7.79s-7.79-3.49-7.79-7.79,3.49-7.78,7.79-7.78,7.78,3.48,7.78,7.78Z"/>
                <path class="cls-1" d="M1775.32,209.63c0,4.3-3.48,7.79-7.78,7.79s-7.79-3.49-7.79-7.79,3.49-7.78,7.79-7.78,7.78,3.48,7.78,7.78Z"/>
              </g>
              <path class="cls-1" d="M1800.65,209.63c0,4.3-3.49,7.79-7.79,7.79s-7.79-3.49-7.79-7.79,3.49-7.78,7.79-7.78,7.79,3.48,7.79,7.78Z"/>
              <path class="cls-1" d="M1787.99,195.83c0,4.3-3.49,7.79-7.79,7.79s-7.79-3.49-7.79-7.79,3.49-7.78,7.79-7.78,7.79,3.48,7.79,7.78Z"/>
              <path class="cls-1" d="M1762.66,195.83c0,4.3-3.48,7.79-7.78,7.79s-7.79-3.49-7.79-7.79,3.49-7.78,7.79-7.78,7.78,3.48,7.78,7.78Z"/>
              <path class="cls-1" d="M1737.66,195.83c0,4.3-3.49,7.79-7.79,7.79s-7.78-3.49-7.78-7.79,3.48-7.78,7.78-7.78,7.79,3.48,7.79,7.78Z"/>
            </g>
          </g>
        </g>
      </g>
    </g>
  </g>
</svg>