<?xml version="1.0" encoding="UTF-8"?>
<svg id="Layer_2" data-name="Layer 2" xmlns="http://www.w3.org/2000/svg" viewBox="0 0 80 40">
  <defs>
    <style>
      .cls-1 {
        fill: #454545;
      }

      .cls-1, .cls-2, .cls-3, .cls-4, .cls-5 {
        fill-rule: evenodd;
      }

      .cls-2 {
        fill: #5a5a5a;
      }

      .cls-6 {
        fill: #f0f1f1;
      }

      .cls-3 {
        fill: #d1d1d1;
      }

      .cls-4 {
        fill: #a2a2a2;
      }

      .cls-5 {
        fill: #e0e1e1;
      }
    </style>
  </defs>
  <g id="Layer_1-2" data-name="Layer 1">
    <g>
      <path class="cls-1" d="M5.98,32.35h8.47s5.41,0,5.41,0h10.21s10.21,0,10.21,0h5.41s5.08,0,5.08,0l18.52-8.33.85-.38v-.78s0-5.7,0-5.7v-.81s-.81-.37-.81-.37l-18.56-8.34h-5.08s-5.41,0-5.41,0h-10.21s-10.21,0-10.21,0h-5.41s-8.47,0-8.47,0v24.7Z"/>
      <path class="cls-2" d="M7.78,16.47v-5.6c0-.36.42-.65.94-.65h7.14c.52,0,.94.29.94.65v5.6c0,.36-.42.65-.94.65h-7.14c-.52,0-.94-.29-.94-.65Z"/>
      <path class="cls-5" d="M0,36.17c0-2.11,2.48-3.82,5.53-3.82h45.24s19.37-8.71,19.37-8.71v-7.28s-19.37-8.71-19.37-8.71H5.53C2.48,7.65,0,5.94,0,3.83S2.48.01,5.53.01h44.4c4.34-.13,7.94.95,10.19,1.88,3.84,1.58,9.76,4.69,14.48,7.22,4.98,2.67,5.39,5.51,5.39,8.43,0,.42-.01.85-.02,1.29,0,.39-.02.78-.02,1.18,0,.4.01.79.02,1.18.01.44.02.87.02,1.29,0,2.92-.41,5.76-5.39,8.43-4.72,2.53-10.64,5.64-14.48,7.22-2.25.93-5.86,2-10.23,1.88H5.53C2.48,39.99,0,38.28,0,36.17Z"/>
      <g>
        <rect class="cls-6" x="39.34" y="0" width="7.29" height="7.64"/>
        <rect class="cls-6" x="13.52" y=".01" width="7.29" height="7.64"/>
        <rect class="cls-6" x="39.34" y="32.35" width="7.29" height="7.64"/>
        <rect class="cls-6" x="13.52" y="32.35" width="7.29" height="7.64"/>
      </g>
      <g>
        <path class="cls-3" d="M70.15,17.17v-.81s-.81-.37-.81-.37l4.91-1.99c.45-.18,1.02-.07,1.28.24.26.31.11.71-.34.88l-5.04,2.05Z"/>
        <path class="cls-3" d="M69.3,24.02l.85-.38v-.78s5.04,2.02,5.04,2.02c.45.18.6.58.34.88-.26.31-.83.42-1.28.24l-4.95-1.98Z"/>
      </g>
      <g>
        <path class="cls-3" d="M50.12,33c0-.22.17-.44.47-.56.45-.18,1.02-.07,1.28.24l2.1,2.51c.26.31.11.71-.34.88-.45.18-1.02.07-1.28-.24l-2.1-2.51c-.09-.1-.13-.21-.13-.32Z"/>
        <path class="cls-3" d="M50.12,7c0-.11.04-.22.13-.32l2.1-2.51c.26-.31.83-.42,1.28-.24.45.18.6.57.34.88l-2.1,2.51c-.26.31-.83.42-1.28.24-.3-.12-.47-.34-.47-.56Z"/>
      </g>
      <path class="cls-3" d="M29.14,35.89v-2.9c0-.36.42-.65.94-.65s.94.29.94.65v2.9c0,.36-.42.65-.94.65s-.94-.29-.94-.65Z"/>
      <path class="cls-3" d="M29.14,7v-2.9c0-.36.42-.65.94-.65s.94.29.94.65v2.9c0,.36-.42.65-.94.65s-.94-.29-.94-.65Z"/>
      <path class="cls-1" d="M60.22,8.18c0-1.14,1.34-2.06,2.99-2.06s2.99.93,2.99,2.06-1.34,2.06-2.99,2.06-2.99-.93-2.99-2.06Z"/>
      <path class="cls-2" d="M41.19,29.13V10.87c0-.36.42-.65.94-.65h7.14c.52,0,.94.29.94.65v18.26c0,.36-.42.65-.94.65h-7.14c-.52,0-.94-.29-.94-.65Z"/>
      <path class="cls-4" d="M39.39,10.87v-3.87c0-.36.42-.65.94-.65h10.73c.52,0,.94.29.94.65v3.87c0,.36-.42.65-.94.65h-10.73c-.52,0-.94-.29-.94-.65Z"/>
      <path class="cls-4" d="M39.39,33v-3.87c0-.36.42-.65.94-.65h10.73c.52,0,.94.29.94.65v3.87c0,.36-.42.65-.94.65h-10.73c-.52,0-.94-.29-.94-.65Z"/>
      <path class="cls-2" d="M24.48,29.13V10.87c0-.36.42-.65.94-.65h7.14c.52,0,.94.29.94.65v18.26c0,.36-.42.65-.94.65h-7.14c-.52,0-.94-.29-.94-.65Z"/>
      <path class="cls-4" d="M22.69,10.87v-3.87c0-.36.42-.65.94-.65h10.73c.52,0,.94.29.94.65v3.87c0,.36-.42.65-.94.65h-10.73c-.52,0-.94-.29-.94-.65Z"/>
      <path class="cls-4" d="M22.69,33v-3.87c0-.36.42-.65.94-.65h10.73c.52,0,.94.29.94.65v3.87c0,.36-.42.65-.94.65h-10.73c-.52,0-.94-.29-.94-.65Z"/>
      <path class="cls-2" d="M7.78,29.13v-5.6c0-.36.42-.65.94-.65h7.14c.52,0,.94.29.94.65v5.6c0,.36-.42.65-.94.65h-7.14c-.52,0-.94-.29-.94-.65Z"/>
      <path class="cls-4" d="M5.98,10.87v-3.87c0-.36.42-.65.94-.65h10.73c.52,0,.94.29.94.65v3.87c0,.36-.42.65-.94.65H6.92c-.52,0-.94-.29-.94-.65Z"/>
      <path class="cls-4" d="M5.98,33v-3.87c0-.36.42-.65.94-.65h10.73c.52,0,.94.29.94.65v3.87c0,.36-.42.65-.94.65H6.92c-.52,0-.94-.29-.94-.65Z"/>
      <path class="cls-4" d="M5.87,23.54v-7.07c0-.36.42-.65.94-.65h10.96c.52,0,.94.29.94.65v7.07c0,.36-.42.65-.94.65H6.8c-.52,0-.94-.29-.94-.65Z"/>
      <path class="cls-5" d="M64.94,8.18c0-.66-.77-1.19-1.73-1.19s-1.73.54-1.73,1.19.77,1.19,1.73,1.19,1.73-.53,1.73-1.19Z"/>
    </g>
  </g>
</svg>