<?xml version="1.0" encoding="UTF-8"?>
<svg id="Layer_2" data-name="Layer 2" xmlns="http://www.w3.org/2000/svg" viewBox="0 0 2830.93 2050.13">
  <defs>
    <style>
      .cls-1 {
        fill: #454545;
      }

      .cls-1, .cls-2, .cls-3, .cls-4, .cls-5 {
        fill-rule: evenodd;
      }

      .cls-2 {
        fill: #5a5a5a;
      }

      .cls-6 {
        fill: #f0f1f1;
      }

      .cls-3 {
        fill: #d1d1d1;
      }

      .cls-4 {
        fill: #a2a2a2;
      }

      .cls-5 {
        fill: #e0e1e1;
      }
    </style>
  </defs>
  <g id="Layer_1-2" data-name="Layer 1">
    <g>
      <path class="cls-1" d="M211.78,1658.13h299.76s191.52,0,191.52,0h361.16s361.2,0,361.2,0h191.5s179.9,0,179.9,0l655.45-426.89,29.95-19.52v-39.8s0-292.09,0-292.09v-41.33s-28.74-18.72-28.74-18.72l-656.66-427.71h-179.9s-191.5,0-191.5,0h-361.2s-361.16,0-361.16,0h-191.52s-299.76,0-299.76,0c0,383.31,0,882.01,0,1266.06Z"/>
      <path class="cls-2" d="M275.27,843.94v-286.9c0-18.31,14.88-33.17,33.16-33.17h252.55c18.3,0,33.18,14.86,33.18,33.17v286.9c0,18.31-14.9,33.18-33.18,33.18h-252.55c-18.3,0-33.16-14.87-33.16-33.18Z"/>
      <path class="cls-5" d="M0,1853.91c0-107.97,87.85-195.77,195.77-195.77h1601.05s685.4-446.41,685.4-446.41v-373.22s-685.4-446.42-685.4-446.42H195.77C87.82,392.07,0,304.26,0,196.31,0,88.35,87.85.52,195.77.52h1571.26c153.44-6.43,281,48.79,360.73,96.24,135.92,80.89,345.3,240.27,512.53,370.07,176.05,136.68,190.63,282.24,190.63,431.83,0,21.54-.37,43.57-.72,66.08-.33,19.74-.64,39.9-.74,60.5.1,20.28.42,40.46.74,60.22.36,22.54.72,44.51.72,66.05,0,149.58-14.59,295.17-190.63,431.83-167.14,129.77-376.48,289.09-512.53,370.05-79.73,47.46-207.28,102.66-362.11,96.22l-1569.9.05C87.82,2049.68,0,1961.84,0,1853.91Z"/>
      <g>
        <rect class="cls-6" x="1392.26" y=".51" width="257.83" height="391.56"/>
        <rect class="cls-6" x="478.36" y=".52" width="257.87" height="391.55"/>
        <rect class="cls-6" x="1392.26" y="1658.13" width="257.83" height="391.48"/>
        <rect class="cls-6" x="478.36" y="1658.13" width="257.87" height="391.5"/>
      </g>
      <g>
        <path class="cls-3" d="M2482.22,879.83v-41.33s-28.74-18.72-28.74-18.72l173.85-102.24c15.88-9.14,36.18-3.74,45.32,12.13,9.17,15.93,3.74,36.18-12.13,45.32l-178.29,104.84Z"/>
        <path class="cls-3" d="M2452.27,1231.24l29.95-19.52v-39.8s178.29,103.29,178.29,103.29c15.89,9.19,21.23,29.54,12.13,45.32-9.14,15.87-29.44,21.3-45.32,12.13l-175.06-101.42Z"/>
      </g>
      <g>
        <path class="cls-3" d="M1773.52,1691.32c0-11.46,5.94-22.6,16.58-28.75,15.87-9.14,36.17-3.74,45.32,12.13l74.19,128.53c9.15,15.78,3.76,36.13-12.13,45.32-15.87,9.14-36.17,3.74-45.31-12.13l-74.2-128.53c-3.03-5.22-4.45-10.92-4.45-16.57Z"/>
        <path class="cls-3" d="M1773.52,358.88c0-5.63,1.45-11.34,4.45-16.56l74.2-128.53c9.14-15.85,29.44-21.3,45.31-12.13,15.88,9.14,21.33,29.41,12.13,45.31l-74.19,128.53c-9.15,15.85-29.45,21.29-45.32,12.15-10.64-6.16-16.58-17.31-16.58-28.76Z"/>
      </g>
      <path class="cls-3" d="M1031.04,1839.7v-148.41c0-18.3,14.88-33.16,33.18-33.16,18.28,0,33.16,14.88,33.16,33.16v148.41c0,18.33-14.88,33.18-33.16,33.18-18.3,0-33.18-14.86-33.18-33.18Z"/>
      <path class="cls-3" d="M1031.04,358.89v-148.4c0-18.31,14.88-33.18,33.18-33.18,18.28,0,33.16,14.87,33.16,33.18v148.4c0,18.33-14.88,33.18-33.16,33.18-18.3,0-33.18-14.86-33.18-33.18Z"/>
      <path class="cls-1" d="M2130.93,419.36c0-58.37,47.48-105.81,105.83-105.81,58.37,0,105.81,47.48,105.81,105.81,0,58.32-47.48,105.81-105.81,105.81-58.35,0-105.83-47.46-105.83-105.81Z"/>
      <path class="cls-2" d="M1457.47,1493.11v-936.06c0-18.31,14.86-33.17,33.17-33.17h252.53c18.3,0,33.17,14.86,33.17,33.17v936.06c0,18.33-14.87,33.18-33.17,33.18h-252.53c-18.31.02-33.17-14.86-33.17-33.18Z"/>
      <path class="cls-4" d="M1393.97,557.05v-198.16c0-18.3,14.85-33.16,33.16-33.16h379.53c18.31,0,33.18,14.86,33.18,33.16v198.16c0,18.31-14.87,33.17-33.18,33.17h-379.53c-18.31,0-33.16-14.85-33.16-33.17Z"/>
      <path class="cls-4" d="M1393.97,1691.29v-198.18c0-18.3,14.85-33.16,33.16-33.16h379.53c18.31,0,33.18,14.88,33.18,33.16v198.18c0,18.33-14.87,33.18-33.18,33.18h-379.53c-18.31,0-33.16-14.86-33.16-33.18Z"/>
      <path class="cls-2" d="M866.35,1493.11v-936.06c0-18.31,14.88-33.17,33.18-33.17h252.53c18.3,0,33.16,14.86,33.16,33.17v936.06c0,18.33-14.88,33.18-33.16,33.18h-252.53c-18.3.02-33.18-14.86-33.18-33.18Z"/>
      <path class="cls-4" d="M802.86,557.05v-198.16c0-18.3,14.88-33.16,33.18-33.16h379.53c18.3,0,33.16,14.86,33.16,33.16v198.16c0,18.31-14.88,33.17-33.16,33.17h-379.53c-18.3,0-33.18-14.85-33.18-33.17Z"/>
      <path class="cls-4" d="M802.86,1691.29v-198.18c0-18.3,14.88-33.16,33.18-33.16h379.53c18.3,0,33.16,14.88,33.16,33.16v198.18c0,18.33-14.88,33.18-33.16,33.18h-379.53c-18.3,0-33.18-14.86-33.18-33.18Z"/>
      <path class="cls-2" d="M275.27,1493.11v-286.86c0-18.3,14.88-33.18,33.16-33.18h252.55c18.3,0,33.18,14.88,33.18,33.18v286.86c0,18.33-14.9,33.18-33.18,33.18h-252.55c-18.3.02-33.16-14.86-33.16-33.18Z"/>
      <path class="cls-4" d="M211.78,557.05v-198.16c0-18.3,14.88-33.16,33.16-33.16h379.53c18.33,0,33.18,14.86,33.18,33.16v198.16c0,18.31-14.88,33.17-33.18,33.17H244.94c-18.33,0-33.16-14.85-33.16-33.17Z"/>
      <path class="cls-4" d="M211.78,1691.29v-198.18c0-18.3,14.88-33.16,33.16-33.16h379.53c18.33,0,33.18,14.88,33.18,33.16v198.18c0,18.33-14.88,33.18-33.18,33.18H244.94c-18.33,0-33.16-14.86-33.16-33.18Z"/>
      <path class="cls-4" d="M207.57,1206.25v-362.3c0-18.3,14.88-33.17,33.18-33.17h387.86c18.33,0,33.18,14.87,33.18,33.17v362.33c0,18.3-14.88,33.18-33.18,33.18H240.76c-18.3,0-33.18-14.88-33.18-33.21Z"/>
      <path class="cls-5" d="M2297.85,419.36c0-33.69-27.42-61.08-61.08-61.08-33.65,0-61.1,27.42-61.1,61.08s27.42,61.06,61.1,61.06c33.7,0,61.08-27.38,61.08-61.06Z"/>
    </g>
  </g>
</svg>